<svg width="255" height="207" viewBox="0 0 255 207" fill="none" xmlns="http://www.w3.org/2000/svg">
<g filter="url(#filter0_d)">
<path d="M196.019 165.084C202.986 165.084 208.633 153.601 208.633 139.435C208.633 125.27 202.986 113.786 196.019 113.786C189.052 113.786 183.404 125.27 183.404 139.435C183.404 153.601 189.052 165.084 196.019 165.084Z" fill="#166756"/>
<path d="M194.854 181.418C199.906 151.212 194.905 121.114 194.854 120.814L193.871 120.98C193.922 121.278 198.895 151.218 193.871 181.255L194.854 181.418Z" fill="#5DDAC0"/>
<path d="M184.913 133.92L184.443 134.796L195.85 140.876L196.32 140L184.913 133.92Z" fill="#5DDAC0"/>
<path d="M207.889 136.966L196.483 143.049L196.953 143.925L208.359 137.841L207.889 136.966Z" fill="#5DDAC0"/>
<path d="M226.328 149.008C239.954 149.008 251 126.548 251 98.8422C251 71.1362 239.954 48.6761 226.328 48.6761C212.702 48.6761 201.655 71.1362 201.655 98.8422C201.655 126.548 212.702 149.008 226.328 149.008Z" fill="#E6E6E6"/>
<path d="M223.58 180.878C233.448 121.875 223.679 63.0874 223.579 62.5005L222.597 62.6664C222.696 63.2519 232.436 121.882 222.596 180.715L223.58 180.878Z" fill="#5DDAC0"/>
<path d="M204.381 88.4733L203.911 89.3493L226.222 101.242L226.692 100.366L204.381 88.4733Z" fill="#5DDAC0"/>
<path d="M249.768 94.4307L227.46 106.329L227.931 107.205L250.238 95.3066L249.768 94.4307Z" fill="#5DDAC0"/>
<path d="M167.893 137.297C186.54 137.297 201.655 106.562 201.655 68.6484C201.655 30.7349 186.54 0 167.893 0C149.247 0 134.131 30.7349 134.131 68.6484C134.131 106.562 149.247 137.297 167.893 137.297Z" fill="#E6E6E6"/>
<path d="M163.951 180.878C177.45 100.167 164.088 19.7511 163.951 18.9483L162.968 19.1142C163.105 19.9155 176.439 100.174 162.968 180.715L163.951 180.878Z" fill="#5DDAC0"/>
<path d="M137.774 54.6207L137.304 55.4967L167.835 71.7703L168.305 70.8942L137.774 54.6207Z" fill="#5DDAC0"/>
<path d="M200.056 62.7729L169.53 79.0545L170 79.9304L200.527 63.6488L200.056 62.7729Z" fill="#5DDAC0"/>
<path d="M240.803 181.479H4V180.914H240.906L240.803 181.479Z" fill="#166756"/>
<path d="M44.5719 175.178H38.8502C35.8573 175.178 33.1837 175.389 31.4188 176.519C30.5887 175.014 29.3682 173.758 27.8846 172.884C26.4011 172.01 24.7091 171.549 22.9856 171.549H17.2639C16.0002 171.549 14.7489 171.797 13.5814 172.279C12.4139 172.761 11.3531 173.468 10.4595 174.358C9.56595 175.248 8.85714 176.306 8.37355 177.469C7.88995 178.632 7.64105 179.879 7.64105 181.139V181.139H54.1948V181.139C54.1948 175.843 49.8865 175.178 44.5719 175.178Z" fill="#166756"/>
<path d="M200.621 181.419H225.062C224.938 176.875 221.523 175.977 215.702 175.977H209.981C204.16 175.977 200.745 176.875 200.621 181.419Z" fill="#166756"/>
<path d="M55.949 113.566L59.2533 115.09L56.9593 120.029C56.7565 120.466 56.3879 120.805 55.9347 120.97C55.4814 121.136 54.9806 121.116 54.5425 120.914C54.1043 120.712 53.7646 120.345 53.5982 119.893C53.4317 119.441 53.4522 118.942 53.655 118.505L55.949 113.566Z" fill="#FFB9B9"/>
<path d="M88.3213 44.533H88.3213C91.8391 44.533 95.2128 45.9255 97.7003 48.4043C100.188 50.8831 101.585 54.2451 101.585 57.7506V72.5234H75.0574V57.7506C75.0574 54.2451 76.4548 50.8831 78.9423 48.4043C81.4297 45.9255 84.8035 44.533 88.3213 44.533Z" fill="#2F2E41"/>
<path d="M78.4383 183.71L75.5775 183.191L73.4969 171.788L79.3486 171.915L78.4383 183.71Z" fill="#FFB9B9"/>
<path d="M110.038 190.316L107.104 191.667L102.423 178.191L107.437 177.358L110.038 190.316Z" fill="#FFB9B9"/>
<path d="M108.737 178.135L101.065 178.526L80.1289 128.115L79.5579 173.514L72.1966 172.565C67.0064 144.313 62.7121 119.216 69.4658 103.494L92.3525 105.308L108.737 178.135Z" fill="#2F2E41"/>
<path d="M73.8393 191.654L70.8621 191.494C70.7314 191.486 70.6046 191.446 70.4938 191.377C70.383 191.307 70.2919 191.211 70.2289 191.097C70.1659 190.982 70.1333 190.854 70.134 190.723C70.1348 190.593 70.1689 190.465 70.2332 190.351L74.7647 182.339L78.744 182.67L79.3582 185.526C79.4723 186.057 79.4345 186.609 79.249 187.119C79.0634 187.63 78.7377 188.078 78.309 188.413L76.3576 189.936C76.186 190.459 75.8462 190.91 75.3909 191.221C74.9356 191.531 74.3903 191.684 73.8393 191.654Z" fill="#2F2E41"/>
<path d="M114.404 198.063L111.832 198.943C111.661 199.002 111.477 199.015 111.299 198.982C111.121 198.949 110.955 198.87 110.817 198.753L106.341 194.971C105.927 194.622 105.626 194.159 105.473 193.64C105.321 193.121 105.325 192.569 105.485 192.052L106.047 190.232L110.308 189.41L114.94 196.511C115.026 196.644 115.082 196.794 115.101 196.951C115.12 197.108 115.103 197.268 115.052 197.417C115 197.567 114.915 197.703 114.803 197.814C114.69 197.926 114.554 198.011 114.404 198.063Z" fill="#2F2E41"/>
<path d="M86.5007 65.2666C91.3844 65.2666 95.3433 61.3214 95.3433 56.4548C95.3433 51.5882 91.3844 47.643 86.5007 47.643C81.6171 47.643 77.6581 51.5882 77.6581 56.4548C77.6581 61.3214 81.6171 65.2666 86.5007 65.2666Z" fill="#FFB9B9"/>
<path d="M95.4733 69.543L85.0703 71.3571L84.03 63.0637L92.0923 62.027L95.4733 69.543Z" fill="#FFB9B9"/>
<path d="M95.4734 108.159L68.6855 105.568C69.9991 91.3253 74.4013 78.7643 83.5099 68.7654L96.5137 67.7287L95.4734 108.159Z" fill="#166756"/>
<path d="M59.7128 116.066L54.2512 114.252L63.6764 95.2633L77.7882 72.3938L83.5098 68.7654L70.8504 97.0365L59.7128 116.066Z" fill="#166756"/>
<path d="M92.4825 53.604L76.3577 56.714L78.9585 48.6797L88.3212 46.6064L95.6034 49.1981L92.4825 53.604Z" fill="#2F2E41"/>
<path d="M59.1579 118.844C72.6152 118.844 83.5246 107.972 83.5246 94.5617C83.5246 81.1512 72.6152 70.2799 59.1579 70.2799C45.7005 70.2799 34.7911 81.1512 34.7911 94.5617C34.7911 107.972 45.7005 118.844 59.1579 118.844Z" fill="#5DDAC0"/>
<path d="M87.3353 122.305L72.5934 118.463L57.8512 114.621L68.5609 103.82L79.2708 93.0183L83.3031 107.662L87.3353 122.305Z" fill="#5DDAC0"/>
<path d="M59.1878 103.028C64.0161 103.028 67.9302 99.1274 67.9302 94.3159C67.9302 89.5044 64.0161 85.6039 59.1878 85.6039C54.3595 85.6039 50.4454 89.5044 50.4454 94.3159C50.4454 99.1274 54.3595 103.028 59.1878 103.028Z" fill="white"/>
<path d="M85.0775 119.527L88.3818 121.051L86.0878 125.99C85.885 126.427 85.5165 126.766 85.0632 126.931C84.61 127.097 84.1092 127.077 83.671 126.875C83.2328 126.673 82.8931 126.305 82.7267 125.854C82.5603 125.402 82.5807 124.903 82.7835 124.466L85.0775 119.527Z" fill="#FFB9B9"/>
<path d="M88.5813 122.804L83.9 119.954L86.3547 103.303L96.5137 69.0246L98.4431 69.7597C100.346 70.4848 101.915 71.882 102.851 73.6852C103.787 75.4885 104.025 77.5718 103.519 79.5384L96.9351 105.138L88.5813 122.804Z" fill="#166756"/>
</g>
<defs>
<filter id="filter0_d" x="0" y="0" width="255" height="207" filterUnits="userSpaceOnUse" color-interpolation-filters="sRGB">
<feFlood flood-opacity="0" result="BackgroundImageFix"/>
<feColorMatrix in="SourceAlpha" type="matrix" values="0 0 0 0 0 0 0 0 0 0 0 0 0 0 0 0 0 0 127 0"/>
<feOffset dy="4"/>
<feGaussianBlur stdDeviation="2"/>
<feColorMatrix type="matrix" values="0 0 0 0 0 0 0 0 0 0 0 0 0 0 0 0 0 0 0.25 0"/>
<feBlend mode="normal" in2="BackgroundImageFix" result="effect1_dropShadow"/>
<feBlend mode="normal" in="SourceGraphic" in2="effect1_dropShadow" result="shape"/>
</filter>
</defs>
</svg>
