<svg width="463" height="326" viewBox="0 0 463 326" fill="none" xmlns="http://www.w3.org/2000/svg">
<path d="M400 186.953C378.405 176.423 354.688 170.966 330.66 171C281.759 171 238.039 193.169 209 228C258.727 217.107 345.305 198.251 400 186.953Z" fill="url(#paint0_linear)"/>
<path opacity="0.1" d="M314.497 314.71C369.447 314.71 413.994 312.089 413.994 308.855C413.994 305.621 369.447 303 314.497 303C259.546 303 215 305.621 215 308.855C215 312.089 259.546 314.71 314.497 314.71Z" fill="#1FB494"/>
<path d="M412.954 238.894L388.928 250.17L410.192 234.403C406.736 229.053 402.854 223.987 398.582 219.252L294.382 244.935L388.504 209.331C384.203 205.568 379.635 202.115 374.836 199L216.061 224.361C199.203 245.266 190.013 271.233 190 298H429C428.99 277.241 423.455 256.852 412.954 238.894Z" fill="url(#paint1_linear)"/>
<path d="M355.577 298H382L373.223 283.726L367.04 283.207L370.663 279.562L348.583 243.651V237.786H345.614L327.6 194.385L330.709 190.084L327.6 187.738H325.874L315.79 95.6571H317.303L319.634 89.0101V76.107H316.526V69.851H312.64V57.73H311.863V46H311.086V57.73H309.92V69.851H306.423V76.107H302.926V89.0101L305.646 95.6571H307.218L299.655 187.738H299.623L294.571 189.302L297.291 193.994L297.486 194.385H297.291L282.169 237.786H278.251L278.64 243.651L246 298H272.811V291.744H271.257C271.257 291.744 276.309 257.336 312.834 254.208C350.137 253.426 357.131 290.962 357.131 290.962H355.577V298ZM373.775 285.292L374.811 288.942L370.149 285.814L373.775 285.292ZM368.076 286.335L373.775 289.984L367.558 289.463L368.076 286.335ZM361.341 289.984L364.968 285.814L366.522 289.984H361.341ZM355.272 266.915L356.604 270.043L350.831 266.915H355.272ZM353.551 264.905L353.995 262.223L358.88 265.351L353.551 264.905ZM361.859 279.036L363.413 282.686L356.678 279.036H361.859ZM354.828 276.299L357.936 272.725L359.269 276.299H354.828ZM360.157 275.853L360.601 273.171L365.486 276.299L360.157 275.853ZM365.486 283.207L363.413 279.036H369.112L365.486 283.207ZM366.374 275.406L362.377 272.725L365.486 272.278L366.374 275.406ZM365.042 270.937L359.713 270.49L362.821 267.362L365.042 270.937ZM358.38 270.49L356.604 266.915H361.489L358.38 270.49ZM359.768 264.458L355.771 261.777L358.88 261.33L359.768 264.458ZM358.436 259.989L353.107 259.542L356.215 256.414L358.436 259.989ZM351.775 259.542L349.998 255.967H354.883L351.775 259.542ZM345.78 253.566L346.224 250.884L351.109 254.012L345.78 253.566ZM349.998 259.095L344.225 255.967H348.666L349.998 259.095ZM351.997 253.119L348 250.438L351.109 249.991L351.997 253.119ZM350.664 248.65L345.335 248.203L348.444 245.075L350.664 248.65ZM347.112 244.628L344.003 248.203L342.227 244.628H347.112ZM342.227 247.756L336.454 244.628H340.895L342.227 247.756ZM298.588 237.786L306.617 201.814H319.051L329.679 237.786H298.588ZM325.907 248.147L320.134 245.019H324.575L325.907 248.147ZM315.693 247.365L314.139 249.153L313.251 247.365H315.693ZM313.251 248.929L310.364 247.365H312.584L313.251 248.929ZM293.989 226.642L299.817 223.123L298.263 229.77L293.989 226.642ZM297.097 230.552H287.771L292.823 227.424L297.097 230.552ZM311.4 105.793L309.756 107.447L308.112 105.793H311.4ZM308.112 105.071L309.756 103.417L311.4 105.071H308.112ZM311.4 109.763H308.112L309.756 108.109L311.4 109.763ZM310.084 107.778L311.728 106.124V109.432L310.084 107.778ZM311.669 111.297V115.207L309.726 113.252L311.669 111.297ZM310.084 103.086L311.728 101.432V104.74L310.084 103.086ZM310.503 98.7851L311.798 97.4818V100.088L310.503 98.7851ZM311.539 100.349H308.949L310.244 99.0458L311.539 100.349ZM310.244 98.5244L308.949 97.2211H311.539L310.244 98.5244ZM309.985 98.7851L308.69 100.088V97.4818L309.985 98.7851ZM311.4 101.101L309.756 102.755L308.112 101.101H311.4ZM309.427 103.086L307.783 104.74V101.432L309.427 103.086ZM309.427 107.778L307.783 109.432V106.124L309.427 107.778ZM311.28 110.906L309.337 112.861L307.394 110.906H311.28ZM311.28 115.598H307.394L309.337 113.643L311.28 115.598ZM311.669 117.162V121.072L309.726 119.117L311.669 117.162ZM311.28 116.771L309.337 118.726L307.394 116.771H311.28ZM311.28 121.463H307.394L309.337 119.508L311.28 121.463ZM311.579 123.358V128.17L309.188 125.764L311.579 123.358ZM311.101 128.652H306.318L308.709 126.245L311.101 128.652ZM311.579 130.396V135.208L316.331 101.432L311.579 130.396ZM311.101 129.915L308.709 132.321L306.318 129.915H311.101ZM311.101 135.69H306.318L308.709 133.283L311.101 135.69ZM311.474 137.69V143.555L308.56 140.622L311.474 137.69ZM310.891 144.141H305.063L307.977 141.209L310.891 144.141ZM311.474 146.292V152.157L308.56 149.224L311.474 146.292ZM310.891 145.705L307.977 148.638L305.063 145.705H310.891ZM310.891 152.743H305.063L307.977 149.811L310.891 152.743ZM311.37 155.149V162.067L307.932 158.608L311.37 155.149ZM310.682 162.759H303.807L307.245 159.3L310.682 162.759ZM311.28 166.428V174.248L307.394 170.338L311.28 166.428ZM310.503 175.03H302.731L306.617 171.12L310.503 175.03ZM311.22 178.248V186.67L307.036 182.459L311.22 178.248ZM310.383 177.406L306.199 181.617L302.014 177.406H310.383ZM310.383 187.512H302.014L306.199 183.301L310.383 187.512ZM300.983 212.175H293.211L297.874 209.438L300.983 212.175ZM298.651 208.656L303.703 205.528L302.537 212.566L298.651 208.656ZM301.76 214.13L300.594 220.777L297.486 217.258L301.76 214.13ZM299.817 213.348L295.931 216.476L293.211 213.348H299.817ZM299.429 221.168H291.269L295.543 218.04L299.429 221.168ZM302.093 244.628L300.317 248.203L297.208 244.628H302.093ZM303.425 244.628H307.866L302.093 247.756L303.425 244.628ZM332.673 225.747L328.619 229.16L326.62 222.634L332.673 225.747ZM325.686 220.347L324.074 213.795L328.55 216.623L325.686 220.347ZM330.541 217.271L335.017 220.099L326.876 220.657L330.541 217.271ZM330.048 215.737L325.96 212.882L332.55 212.43L330.048 215.737ZM324.718 211.791L327.634 208.848L332.471 211.26L324.718 211.791ZM323.193 212.288L321.555 205.345L326.806 208.121L323.193 212.288ZM313.731 187.512L317.916 183.301L322.1 187.512H313.731ZM312.894 186.67V178.248L317.079 182.459L312.894 186.67ZM313.731 177.406H322.1L317.916 181.617L313.731 177.406ZM313.611 175.03L317.497 171.12L321.383 175.03H313.611ZM312.834 174.248V166.428L316.72 170.338L312.834 174.248ZM312.745 162.067V155.149L316.182 158.608L312.745 162.067ZM316.869 159.3L320.307 162.759H313.432L316.869 159.3ZM314.03 107.778L312.386 109.432V106.124L314.03 107.778ZM312.715 105.793H316.003L314.359 107.447L312.715 105.793ZM312.446 117.162L314.389 119.117L312.446 121.072V117.162ZM312.834 116.771H316.72L314.777 118.726L312.834 116.771ZM312.535 130.396L314.927 132.802L312.535 135.208V130.396ZM313.014 129.915H317.796L315.405 132.321L313.014 129.915ZM312.64 146.292L315.554 149.224L312.64 152.157V146.292ZM313.223 145.705H319.051L316.137 148.638L313.223 145.705ZM316.137 149.811L319.051 152.743H313.223L316.137 149.811ZM316.72 149.224L319.634 146.292V152.157L316.72 149.224ZM313.223 144.141L316.137 141.209L319.051 144.141H313.223ZM312.64 143.555V137.69L315.554 140.622L312.64 143.555ZM315.405 133.283L317.796 135.69H313.014L315.405 133.283ZM315.883 132.802L318.274 130.396V135.208L315.883 132.802ZM313.014 128.652L315.405 126.245L317.796 128.652H313.014ZM312.535 128.17V123.358L314.927 125.764L312.535 128.17ZM314.777 119.508L316.72 121.463H312.834L314.777 119.508ZM315.166 119.117L317.109 117.162V121.072L315.166 119.117ZM312.834 115.598L314.777 113.643L316.72 115.598H312.834ZM312.446 115.207V111.297L314.389 113.252L312.446 115.207ZM314.359 108.109L316.003 109.763H312.715L314.359 108.109ZM314.687 107.778L316.331 106.124V109.432L314.687 107.778ZM312.715 105.071L314.359 103.417L316.003 105.071H312.715ZM312.386 104.74V101.432L314.03 103.086L312.386 104.74ZM314.13 98.7851L315.425 97.4818V100.088L314.13 98.7851ZM315.166 100.349H312.575L313.871 99.0458L315.166 100.349ZM313.871 98.5244L312.575 97.2211H315.166L313.871 98.5244ZM313.611 98.7851L312.316 100.088V97.4818L313.611 98.7851ZM330.792 245.019L327.683 248.594L325.907 245.019H330.792ZM329.835 229.86L333.888 226.447L339.139 229.223L329.835 229.86ZM339.836 227.999L334.558 224.834L337.501 222.28L339.836 227.999ZM333.342 224.133L328.505 221.721L336.259 221.19L333.342 224.133ZM335.713 218.876L331.264 216.437L333.766 213.131L335.713 218.876ZM332.78 210.063L328.33 207.625L330.859 204.708L332.78 210.063ZM330.419 203.954L327.529 207.288L322.278 204.512L330.419 203.954ZM322.937 186.67L318.753 182.459L322.937 178.248V186.67ZM322.16 174.248L318.274 170.338L322.16 166.428V174.248ZM317.497 169.556L313.611 165.646H321.383L317.497 169.556ZM320.994 162.067L317.557 158.608L320.994 155.149V162.067ZM316.869 157.916L313.432 154.458H320.307L316.869 157.916ZM319.634 143.555L316.72 140.622L319.634 137.69V143.555ZM316.137 140.036L313.223 137.103H319.051L316.137 140.036ZM318.274 128.17L315.883 125.764L318.274 123.358V128.17ZM315.405 125.283L313.014 122.877H317.796L315.405 125.283ZM317.109 115.207L315.166 113.252L317.109 111.297V115.207ZM314.777 112.861L312.834 110.906H316.72L314.777 112.861ZM316.331 104.74L314.687 103.086L316.331 101.432V104.74ZM314.359 102.755L312.715 101.101H316.003L314.359 102.755ZM307.006 111.297L308.949 113.252L307.006 115.207V111.297ZM307.006 117.162L308.949 119.117L307.006 121.072V117.162ZM311.101 122.877L308.709 125.283L306.318 122.877H311.101ZM305.84 123.358L308.231 125.764L305.84 128.17V123.358ZM305.84 130.396L308.231 132.802L305.84 135.208V130.396ZM310.891 137.103L307.977 140.036L305.063 137.103H310.891ZM304.48 137.69L307.394 140.622L304.48 143.555V137.69ZM304.48 146.292L307.394 149.224L304.48 152.157V146.292ZM310.682 154.458L307.245 157.916L303.807 154.458H310.682ZM303.12 155.149L306.557 158.608L303.12 162.067V155.149ZM310.503 165.646L306.617 169.556L302.731 165.646H310.503ZM301.954 166.428L305.84 170.338L301.954 174.248V166.428ZM301.177 178.248L305.362 182.459L301.177 186.67V178.248ZM302.926 204.746L297.874 207.874L294.766 204.746L302.926 204.746ZM294.377 205.528L297.097 208.265L292.823 211.002L294.377 205.528ZM292.046 214.13L294.766 217.258L290.491 219.995L292.046 214.13ZM297.874 222.341L293.211 225.078L290.103 222.341H297.874ZM288.937 223.514L292.046 225.86L286.994 229.379L288.937 223.514ZM291.158 244.628L285.384 247.756L286.717 244.628H291.158ZM285.384 244.628L283.608 248.203L280.5 244.628H285.384ZM279.167 245.075L282.276 248.203L276.947 248.65L279.167 245.075ZM284.163 255.967L278.39 259.095L279.722 255.967H284.163ZM276.503 254.012L281.388 250.884L281.832 253.566L276.503 254.012ZM276.503 249.991L279.611 250.438L275.615 253.119L276.503 249.991ZM278.39 255.967L276.614 259.542L273.505 255.967H278.39ZM272.173 256.414L275.282 259.542L269.953 259.989L272.173 256.414ZM271.71 279.036L264.975 282.686L266.53 279.036H271.71ZM262.903 276.299L267.788 273.171L268.232 275.853L262.903 276.299ZM269.12 276.299L270.452 272.725L273.561 276.299H269.12ZM277.558 266.915L271.784 270.043L273.117 266.915H277.558ZM269.509 265.351L274.393 262.223L274.838 264.905L269.509 265.351ZM269.509 261.33L272.617 261.777L268.62 264.458L269.509 261.33ZM271.784 266.915L270.008 270.49L266.9 266.915H271.784ZM265.567 267.362L268.676 270.49L263.347 270.937L265.567 267.362ZM262.903 272.278L266.011 272.725L262.015 275.406L262.903 272.278ZM264.975 279.036L262.903 283.207L259.276 279.036H264.975ZM254.613 285.292L258.24 285.814L253.577 288.942L254.613 285.292ZM254.613 289.984L260.312 286.335L260.83 289.463L254.613 289.984ZM255.131 283.728L257.722 279.558L261.349 283.207L255.131 283.728ZM261.867 289.984L263.421 285.814L267.048 289.984H261.867ZM269.12 289.463L265.493 285.292L271.71 284.771L269.12 289.463ZM272.229 283.207H266.53L273.783 279.558L272.229 283.207ZM275.337 275.853L272.229 272.278L277.558 271.831L275.337 275.853ZM278.002 270.49H273.117L279.334 267.362L278.002 270.49ZM275.726 265.351L277.058 261.777L280.167 265.351H275.726ZM281.943 264.905L278.834 261.33L284.163 260.883L281.943 264.905ZM284.607 259.542H279.722L285.94 256.414L284.607 259.542ZM282.72 254.012L284.052 250.438L287.161 254.012H282.72ZM288.937 253.566L285.829 249.991L291.158 249.544L288.937 253.566ZM286.717 248.203L292.934 245.075L291.602 248.203H286.717ZM293.211 249.991L296.32 250.438L292.323 253.119L293.211 249.991ZM293.211 254.012L298.096 250.884L298.54 253.566L293.211 254.012ZM293.656 248.65L295.876 245.075L298.984 248.203L293.656 248.65ZM299.429 254.012L300.761 250.438L303.869 254.012H299.429ZM305.646 253.566L302.537 249.991L307.866 249.544L305.646 253.566ZM303.425 248.203L309.642 245.075L308.31 248.203H303.425ZM309.476 247.589L312.584 249.153H310.142L309.476 247.589ZM310.364 249.823L313.029 250.047L311.474 251.834L310.364 249.823ZM312.362 252.057L313.917 250.27L314.583 252.057H312.362ZM316.359 247.589L317.469 249.376L314.805 249.153L316.359 247.589ZM315.027 251.834L315.249 250.493L317.691 252.057L315.027 251.834ZM316.137 250.27L317.691 250.047L318.136 251.611L316.137 250.27ZM318.358 245.466L324.575 248.594H319.69L318.358 245.466ZM320.134 249.935L325.463 250.382L322.354 253.957L320.134 249.935ZM324.131 254.403L327.239 250.829L328.571 254.403H324.131ZM332.124 245.466L334.344 249.041L329.016 248.594L332.124 245.466ZM329.46 253.957L329.904 251.275L334.789 254.403L329.46 253.957ZM331.68 250.829L334.789 250.382L335.677 253.51L331.68 250.829ZM334.678 245.075L340.895 248.203H336.01L334.678 245.075ZM336.454 249.544L341.783 249.991L338.674 253.566L336.454 249.544ZM343.559 250.438L344.891 254.012H340.451L343.559 250.438ZM343.781 259.542L342.449 256.414L348.666 259.542H343.781ZM344.225 260.883L349.554 261.33L346.446 264.905L344.225 260.883ZM351.331 261.777L352.663 265.351H348.222L351.331 261.777ZM349.055 267.362L355.272 270.49H350.387L349.055 267.362ZM350.831 271.831L356.16 272.278L353.051 275.853L350.831 271.831ZM354.606 279.558L361.859 283.207H356.16L354.606 279.558ZM356.678 284.771L362.895 285.292L359.269 289.463L356.678 284.771Z" fill="url(#paint2_linear)"/>
<path opacity="0.1" d="M243.24 57.4686H237.7V60.0218H243.24V57.4686Z" fill="#3E3E3E"/>
<path opacity="0.1" d="M252.189 57.4686H246.649V60.0218H252.189V57.4686Z" fill="#3E3E3E"/>
<path d="M348.042 291.214C343.448 293.919 341.64 299.355 341.64 299.355C341.64 299.355 347.28 300.407 351.873 297.702C356.467 294.998 358.275 289.561 358.275 289.561C358.275 289.561 352.635 288.509 348.042 291.214Z" fill="#3F3D56"/>
<path d="M19.2692 123.746H15.7955L15.7955 219.911H19.2692L19.2692 123.746Z" fill="#1E2120"/>
<path d="M37.9345 123.746H34.4608L34.4608 219.911H37.9345L37.9345 123.746Z" fill="#1E2120"/>
<path d="M16.6434 126.356L15.7736 123.746C15.7736 123.746 25.325 112.435 38.7824 121.553L37.9126 125.473H34.4389C34.4389 125.473 28.7988 120.73 19.2473 126.147L16.6434 126.356Z" fill="#1E2120"/>
<path d="M14.4935 213.819C14.4935 213.819 2.77025 214.252 1.03611 227.74C-0.698031 241.228 1.03611 303.887 1.03611 303.887C1.03611 303.887 14.4935 313.893 30.9925 312.588C47.4914 311.283 73.9685 306.497 73.9685 306.497L73.9685 233.026C73.9685 222.06 64.8438 213.117 53.9138 213.748C53.6567 213.748 53.3667 213.781 53.1315 213.808L14.4935 213.819Z" fill="#1C1C1F"/>
<g clip-path="url(#clip0)">
<path d="M442.902 84.9148C441.937 85.268 440.243 85.5584 438.281 85.7919C432.948 86.4276 425.639 86.6533 425.639 86.6533C425.639 86.6533 388.068 89.7485 359.909 78.2367C359.909 78.2367 355.813 76.1039 359.613 73.2333C360.198 72.8044 360.82 72.4275 361.472 72.1071L361.518 72.0609C361.95 71.6642 362.417 71.3066 362.914 70.9926C364.372 70.0557 366.836 68.9451 369.834 69.4484L443.791 81.33C443.791 81.33 446.492 83.5973 442.902 84.9148Z" fill="#FE8D61"/>
<path d="M428.167 79.5298L443.649 68.6184L450.473 69.7908L443.791 81.33C443.791 81.33 428.344 81.4527 428.167 79.5298Z" fill="#FE8D61"/>
<path d="M389.188 72.9007L420.027 64.3096L424.998 65.3416L411.067 71.5665L406.714 76.4051L389.188 72.9007Z" fill="#FE8D61"/>
<path d="M438.281 85.7919C432.948 86.4276 425.639 86.6533 425.639 86.6533C425.639 86.6533 388.068 89.7485 359.909 78.2367C359.909 78.2367 355.813 76.1039 359.613 73.2333L359.626 73.2863C359.626 73.2863 365.702 77.3655 394.733 80.7708L438.281 85.7919Z" fill="#1C1C1F"/>
<path d="M433.324 85.5564L447.112 91.1485L450.575 90.7669L442.329 84.6097C442.329 84.6097 432.353 82.4955 433.324 85.5564Z" fill="#FE8D61"/>
<path d="M364.625 73.8838C363.967 73.8946 362.46 72.7987 361.523 72.0609C361.955 71.6642 362.422 71.3066 362.918 70.9926C363.674 71.5685 365.018 72.5005 365.766 72.4642C366.845 72.42 365.616 73.8661 364.625 73.8838Z" fill="#1C1C1F"/>
<path d="M427.263 104.886L418.411 105.346L393.522 88.6762L388.902 85.581L386.658 84.077C390.868 80.5452 408.046 85.4161 408.046 85.4161C408.375 85.6918 408.48 86.15 408.465 86.6562C408.436 87.6039 407.988 88.7164 407.815 89.1167C407.774 89.2148 407.748 89.2668 407.748 89.2668L427.263 104.886Z" fill="#FE8D61"/>
</g>
<g clip-path="url(#clip1)">
<path d="M153.905 31.5132C163.83 31.5132 171.876 25.2138 171.876 17.4432C171.876 9.67252 163.83 3.37315 153.905 3.37315C143.981 3.37315 135.935 9.67252 135.935 17.4432C135.935 25.2138 143.981 31.5132 153.905 31.5132Z" fill="#1C1C1F"/>
<path d="M189.846 91.0392C204.138 91.0392 215.724 79.4093 215.724 65.063C215.724 50.7168 204.138 39.0869 189.846 39.0869C175.554 39.0869 163.968 50.7168 163.968 65.063C163.968 79.4093 175.554 91.0392 189.846 91.0392Z" fill="#1C1C1F"/>
<path d="M197.753 127.48H171.876V160.671H197.753V127.48Z" fill="#FBBEBE"/>
<path d="M215.724 118.097H207.816V133.972H215.724V118.097Z" fill="#FBBEBE"/>
<path d="M175.29 288.929L172.057 298.671C172.057 298.671 170.617 305.885 175.29 306.245C179.964 306.604 187.518 305.163 187.518 305.163C187.518 305.163 188.596 301.917 187.518 299.03C186.44 296.143 183.207 288.206 183.207 288.206L175.29 288.929Z" fill="#1C1C1F"/>
<path d="M199.728 289.288C199.728 289.288 194.696 301.917 198.65 304.081C202.604 306.245 207.997 304.44 212.309 306.245C216.62 308.049 228.481 303.722 228.481 303.722C228.481 303.722 229.921 299.753 222.014 298.671C222.014 298.671 213.409 292.175 213.409 290.733C213.409 289.292 208.378 289.288 208.378 289.288H199.728Z" fill="#1C1C1F"/>
<path d="M198.65 145.342C198.65 145.342 169.181 151.474 165.59 149.67C161.998 147.865 158.403 174.218 158.403 174.218C158.403 174.218 156.962 190.093 161.994 211.378C167.025 232.662 161.994 243.127 161.994 243.127C161.994 243.127 162.714 263.33 168.108 272.713C173.502 282.096 173.497 290.752 173.497 290.752C173.497 290.752 183.913 291.834 184.28 289.306C184.28 289.306 179.964 279.205 180.684 269.826C181.404 260.448 178.529 242.404 178.529 242.404C178.529 242.404 183.202 219.674 182.482 211.037C181.762 202.399 185 183.979 186.794 187.224C188.587 190.47 193.265 206.345 193.265 209.596C193.265 212.846 195.077 234.485 196.141 235.931C197.205 237.376 196.857 241.704 196.499 243.868C196.141 246.032 196.141 262.266 197.934 270.926C199.728 279.587 198.297 289.324 198.655 290.77C199.012 292.215 209.438 291.129 209.795 288.601C209.795 288.601 211.236 273.09 211.956 270.926C212.676 268.762 213.015 241.304 213.015 241.304C213.015 241.304 213.731 220.02 214.451 217.856C215.171 215.692 216.262 169.149 211.575 163.758C206.888 158.366 208.699 144.637 208.699 144.637L198.65 145.342Z" fill="#1C1C1F"/>
<path d="M174.425 82.4926C173.094 85.0111 171.753 87.5524 170.92 90.2845C170.087 93.0167 169.797 95.9762 170.581 98.722C171.141 100.437 171.92 102.072 172.899 103.586C173.678 105.033 174.665 106.357 175.829 107.514C178.547 110.005 182.496 110.505 186.164 110.896C186.793 111.002 187.436 110.991 188.062 110.864C188.563 110.718 189.027 110.464 189.42 110.119C191.028 108.755 191.757 106.673 192.346 104.664C193.746 99.885 194.749 94.9979 195.344 90.0527C195.482 89.2708 195.482 88.4706 195.344 87.6887C195.027 86.3249 193.94 85.2657 193.152 84.0928C192.208 82.6913 191.669 81.055 191.594 79.3649C191.562 78.5421 191.594 77.6329 191.078 77.0055C190.734 76.664 190.318 76.4059 189.86 76.2509C187.718 75.3417 185.58 74.4325 183.433 73.5596C182.138 73.0232 179.81 71.5957 178.452 72.6504C177.288 73.5596 177.849 75.669 177.351 76.9328C176.586 78.8512 175.386 80.6742 174.425 82.4926Z" fill="#FBBEBE"/>
<path opacity="0.1" d="M174.425 82.4926C173.094 85.0111 171.753 87.5524 170.92 90.2845C170.087 93.0167 169.797 95.9762 170.581 98.722C171.141 100.437 171.92 102.072 172.899 103.586C173.678 105.033 174.665 106.357 175.829 107.514C178.547 110.005 182.496 110.505 186.164 110.896C186.793 111.002 187.436 110.991 188.062 110.864C188.563 110.718 189.027 110.464 189.42 110.119C191.028 108.755 191.757 106.673 192.346 104.664C193.746 99.885 194.749 94.9979 195.344 90.0527C195.482 89.2708 195.482 88.4706 195.344 87.6887C195.027 86.3249 193.94 85.2657 193.152 84.0928C192.208 82.6913 191.669 81.055 191.594 79.3649C191.562 78.5421 191.594 77.6329 191.078 77.0055C190.734 76.664 190.318 76.4059 189.86 76.2509C187.718 75.3417 185.58 74.4325 183.433 73.5596C182.138 73.0232 179.81 71.5957 178.452 72.6504C177.288 73.5596 177.849 75.669 177.351 76.9328C176.586 78.8512 175.386 80.6742 174.425 82.4926Z" fill="black"/>
<path d="M188.587 83.2882C195.535 83.2882 201.168 77.634 201.168 70.6592C201.168 63.6845 195.535 58.0303 188.587 58.0303C181.639 58.0303 176.006 63.6845 176.006 70.6592C176.006 77.634 181.639 83.2882 188.587 83.2882Z" fill="#FBBEBE"/>
<path d="M193.003 102.509C190.62 103.368 188.161 104.109 185.63 104.2C183.733 104.219 181.841 104.016 179.991 103.595C176.17 102.832 172.416 101.757 168.769 100.381C167.99 101.922 167.782 103.682 167.714 105.409C167.519 110.633 168.556 115.815 168.955 121.029C169.457 127.658 168.955 134.431 170.653 140.85C170.751 139.759 171.174 138.723 171.867 137.877C172.444 137.253 173.134 136.744 173.9 136.377C177.328 134.598 181.275 134.105 185.032 134.986C187.21 135.504 189.524 136.472 191.59 135.604C192.821 135.081 193.714 133.981 194.397 132.826C195.558 130.743 196.387 128.489 196.852 126.148C198.211 120.129 198.392 113.906 198.555 107.732C198.6 106.082 199.307 101.177 197.944 99.9676C196.988 99.1266 196.707 100.327 196.019 100.954C195.123 101.664 194.099 102.192 193.003 102.509Z" fill="#B0F1E4"/>
<path d="M175.295 80.8287C174.457 80.1696 173.216 80.3741 172.292 80.9333C171.369 81.4924 170.621 82.2653 169.684 82.7744C167.084 84.1883 163.593 83.1518 161.124 84.7974C158.806 86.3476 158.407 89.539 158.226 92.3302C157.773 99.4221 157.384 106.564 155.685 113.465C155.232 115.283 154.689 117.147 154.861 119.02C154.997 120.09 155.249 121.142 155.613 122.157L157.841 129.144C158.874 132.39 159.92 135.686 160.028 139.091C160.137 142.496 159.34 145.733 158.547 148.983C156.981 155.387 155.962 161.913 155.5 168.49C155.359 170.668 155.3 172.941 156.179 174.936C157.085 177.023 158.923 178.573 160.862 179.751C162.8 180.928 164.906 181.837 166.804 183.088C170.612 185.602 173.669 189.561 178.125 190.593C180.168 191.048 182.306 190.866 184.362 190.466C184.362 190.466 183.198 137.404 179.96 129.826C176.722 122.248 173.85 89.4208 173.85 88.3388C173.85 87.2568 175.295 80.8287 175.295 80.8287Z" fill="#5DDAC0"/>
<path d="M192.785 82.5653C192.785 82.5653 209.791 82.5653 212.309 91.5847C214.827 100.604 205.122 115.397 205.122 115.397C205.122 115.397 209.075 144.619 210.869 147.506C212.662 150.392 211.951 156.143 211.951 156.143C213.253 160.102 213.5 164.333 212.667 168.417C211.231 174.909 205.837 186.456 205.837 186.456C205.837 186.456 198.65 186.456 196.852 190.784C195.054 195.112 194.696 172.022 194.696 172.022C194.696 172.022 188.229 129.812 188.587 127.289C188.945 124.766 190.743 103.836 191.463 98.0628C192.183 92.2893 193.75 84.7292 192.785 82.5653Z" fill="#5DDAC0"/>
<path d="M205.837 88.3388C205.837 88.3388 214.107 90.8619 214.107 93.7486C214.107 96.6354 216.638 112.146 216.638 117.197C216.638 122.248 215.561 122.971 216.638 124.775C217.716 126.58 205.14 125.857 205.14 125.857L202.853 105.296L205.837 88.3388Z" fill="#5DDAC0"/>
<path d="M156.958 114.315C156.958 114.315 173.135 115.397 176.011 113.228C178.886 111.06 191.105 116.115 192.183 119.002C193.261 121.889 174.928 122.248 172.057 122.248C169.186 122.248 155.522 126.58 155.522 126.58L156.958 114.315Z" fill="#A0616A"/>
<path d="M123.658 282.369C123.658 282.369 116.117 301.462 120.035 303.735C123.952 306.008 165.259 304.39 165.259 304.39C165.259 304.39 172.138 300.117 164.276 297.153C164.276 297.153 157.719 296.825 153.462 294.193C149.205 291.561 144.282 286.628 144.282 286.628C144.282 286.628 143.956 279.391 141.334 281.037C140.549 281.555 139.882 282.233 139.374 283.026C138.866 283.819 138.529 284.71 138.385 285.642L123.658 282.369Z" fill="#1C1C1F"/>
<path opacity="0.1" d="M123.658 282.369C123.658 282.369 116.117 301.462 120.035 303.735C123.952 306.008 165.259 304.39 165.259 304.39C165.259 304.39 172.138 300.117 164.276 297.153C164.276 297.153 157.719 296.825 153.462 294.193C149.205 291.561 144.282 286.628 144.282 286.628C144.282 286.628 143.956 279.391 141.334 281.037C140.549 281.555 139.882 282.233 139.374 283.026C138.866 283.819 138.529 284.71 138.385 285.642L123.658 282.369Z" fill="black"/>
<path d="M112.023 288.206C112.023 288.206 103.758 309.118 108.07 311.654C112.381 314.191 157.669 312.377 157.669 312.377C157.669 312.377 165.218 307.69 156.591 304.44C156.591 304.44 149.404 304.081 144.73 301.194C140.056 298.307 134.667 292.884 134.667 292.884C134.667 292.884 134.309 284.946 131.434 286.751C130.573 287.32 129.841 288.063 129.284 288.933C128.727 289.802 128.358 290.78 128.2 291.802L112.023 288.206Z" fill="#1C1C1F"/>
<path d="M154.444 155.443L149.413 200.903C149.413 200.903 147.601 222.552 142.226 227.239C142.226 227.239 142.226 234.094 140.414 236.258L137.896 264.762C137.896 264.762 141.492 275.218 141.134 277.036C140.777 278.855 142.57 284.61 142.212 285.333C141.854 286.056 124.957 285.333 124.957 285.333L128.553 227.248L139.694 146.437L154.444 155.443Z" fill="#1C1C1F"/>
<path opacity="0.1" d="M154.444 155.443L149.413 200.903C149.413 200.903 147.601 222.552 142.226 227.239C142.226 227.239 142.226 234.094 140.414 236.258L137.896 264.762C137.896 264.762 141.492 275.218 141.134 277.036C140.777 278.855 142.57 284.61 142.212 285.333C141.854 286.056 124.957 285.333 124.957 285.333L128.553 227.248L139.694 146.437L154.444 155.443Z" fill="#1C1C1F"/>
<path d="M145.459 153.997C145.459 153.997 141.506 191.157 139.708 199.094C138.577 204.321 137.857 209.629 137.552 214.969C137.552 214.969 137.194 226.516 133.956 229.762C133.011 230.701 132.269 231.826 131.775 233.065C131.281 234.305 131.046 235.633 131.085 236.967C131.085 236.967 127.847 273.404 129.645 277.736C131.443 282.069 133.241 285.674 131.456 288.556C129.672 291.438 109.89 291.443 109.89 289.279C109.89 287.115 109.89 285.31 108.812 284.228C107.734 283.146 108.812 276.291 108.812 276.291C108.812 276.291 104.501 244.182 108.454 234.803C112.408 225.425 114.206 199.799 114.206 199.799C114.206 199.799 111.33 170.577 107.734 165.885C104.139 161.194 108.454 144.601 108.454 144.601L145.459 153.997Z" fill="#1C1C1F"/>
<path d="M135.342 38.6005C135.759 39.5552 136.759 40.0871 137.67 40.5917C142.946 43.5102 147.361 47.7426 151.709 51.925C150.624 48.2296 150.856 44.2701 152.366 40.7281C152.882 39.5234 153.566 38.2232 153.194 36.9639C152.918 36.0547 152.135 35.3637 151.383 34.7727C149.608 33.3946 147.752 32.124 145.826 30.9677C144.467 30.1585 141.714 28.0082 140.17 28.2401C140.088 30.3358 140.047 32.2088 139.133 34.1499C138.906 34.6318 135.5 38.9642 135.342 38.6005Z" fill="#A0616A"/>
<path d="M153.724 43.2375C161.863 43.2375 168.461 36.6145 168.461 28.4446C168.461 20.2748 161.863 13.6518 153.724 13.6518C145.585 13.6518 138.988 20.2748 138.988 28.4446C138.988 36.6145 145.585 43.2375 153.724 43.2375Z" fill="#A0616A"/>
<path d="M154.444 63.4447C154.444 63.4447 156.958 50.8157 149.771 46.4879C142.583 42.1601 134.318 37.1094 134.318 37.1094C134.318 37.1094 131.8 36.7457 130.723 42.1601C130.723 42.1601 110.239 46.1288 108.079 65.6086C105.918 85.0884 109.519 113.592 109.519 113.592C109.519 113.592 106.285 138.486 102.332 151.833C102.332 151.833 99.0934 154.72 113.472 150.392C127.851 146.065 153.004 162.667 153.004 162.667C153.004 162.667 155.522 160.139 155.522 158.334C155.522 156.53 158.398 146.06 158.398 146.06C158.398 146.06 160.912 101.686 161.989 96.6354C163.067 91.5847 157.678 64.1675 154.444 63.4447Z" fill="url(#paint3_linear)"/>
<path d="M132.163 88.3388C132.163 88.3388 151.926 76.7919 147.973 61.999C144.019 47.2062 135.396 42.5192 135.396 42.5192C135.396 42.5192 121.38 37.8277 109.519 52.9751L110.239 59.8306C110.239 59.8306 123.178 33.4953 137.194 50.0884C151.211 66.6815 132.163 88.3388 132.163 88.3388Z" fill="#5DDAC0"/>
<path d="M110.954 53.7025V112.86L107.282 133.04L105.565 142.446H93.0022L75.3942 135.95L75.3942 92.3075C75.3942 92.3075 90.1264 63.081 94.8001 57.6712C99.4739 52.2614 110.954 53.7025 110.954 53.7025Z" fill="url(#paint4_linear)"/>
<path opacity="0.1" d="M107.277 133.045L105.565 142.45H92.9841L75.3761 135.959L107.277 133.045Z" fill="black"/>
<path d="M106.643 120.443L137.552 82.5608L110.234 121.889L107.359 122.607L106.643 120.443Z" fill="#5DDAC0"/>
<path d="M150.251 29.9721C151.089 29.4038 152.139 29.2993 153.145 29.1993C154.15 29.0992 155.201 28.9629 156.002 28.3446C157.393 27.2717 157.497 25.1987 158.516 23.7667C159.988 21.6892 162.927 21.4392 165.468 21.5392C167.021 21.6028 168.692 21.6983 169.996 20.8573C171.301 20.0162 171.944 18.3569 172.397 16.8249C172.936 15.0065 173.28 12.788 171.944 11.4424C171.038 10.5059 169.571 10.3195 168.547 9.49669C167.524 8.67385 167.048 7.26003 166.473 6.02805C165.816 4.52307 164.778 3.21733 163.461 2.24119C161.532 0.87738 159.068 0.595525 156.718 0.618256C154.367 0.640986 152.008 0.954663 149.676 0.663715C147.764 0.427321 145.858 -0.209124 143.956 0.0727313C141.528 0.431869 139.522 2.27302 138.322 4.4233C137.122 6.57358 136.615 9.02844 136.116 11.4378L134.758 17.9978C134.341 20.0344 133.92 22.1211 134.241 24.1713C134.912 28.4264 138.662 31.8087 138.92 36.1047C139.166 34.9178 139.702 33.811 140.48 32.8834C141.258 31.9559 142.253 31.2367 143.376 30.7904C143.657 30.6526 143.976 30.6126 144.282 30.6767C144.653 30.7995 144.871 31.1722 145.106 31.4859C145.722 32.3088 147.656 33.5544 148.729 32.9725C149.753 32.4497 149.019 30.8131 150.251 29.9721Z" fill="#1C1C1F"/>
<path d="M293.533 300.83C297.105 300.83 300 297.924 300 294.338C300 290.753 297.105 287.847 293.533 287.847C289.961 287.847 287.066 290.753 287.066 294.338C287.066 297.924 289.961 300.83 293.533 300.83Z" fill="#1C1C1F"/>
<path d="M113.115 97.3582C113.115 97.3582 110.597 113.228 121.017 111.787C121.017 111.787 126.411 111.065 127.131 111.787C127.851 112.51 154.444 107.819 158.04 103.85C158.04 103.85 162.352 102.409 164.507 104.573C166.663 106.737 188.229 108.901 181.767 102.404C175.304 95.908 165.237 94.4669 165.237 94.4669L151.578 95.1852C151.578 95.1852 144.391 97.3536 140.079 95.1852C135.768 93.0167 123.535 93.7668 123.535 93.7668L113.115 97.3582Z" fill="#A0616A"/>
<path d="M127.847 47.2107C127.847 47.2107 111.674 49.0292 111.674 72.464L111.674 102.404C111.674 102.404 120.66 98.4356 122.458 98.7947C124.255 99.1539 131.443 94.1032 131.443 94.1032C131.443 94.1032 139.708 74.6279 138.988 69.2181C138.268 63.8083 138.63 47.929 127.847 47.2107Z" fill="#202021"/>
<path d="M201.884 105.291L185.711 116.838L195.774 117.92L209.791 106.014L201.884 105.291Z" fill="#1C1C1F"/>
<path d="M214.465 122.611C214.465 122.611 218.418 134.886 213.029 138.486C207.64 142.087 198.65 125.857 198.65 125.857C198.65 125.857 188.945 114.315 195.416 111.787C201.888 109.26 204.528 120.266 204.528 120.266L213.015 127.662L214.465 122.611Z" fill="#FBBEBE"/>
<path d="M189.846 70.4774C197.785 70.4774 204.22 66.3579 204.22 61.2762C204.22 56.1945 197.785 52.075 189.846 52.075C181.907 52.075 175.472 56.1945 175.472 61.2762C175.472 66.3579 181.907 70.4774 189.846 70.4774Z" fill="#1C1C1F"/>
<path d="M192.36 49.5519C198.115 49.5519 202.78 44.8686 202.78 39.0915C202.78 33.3143 198.115 28.631 192.36 28.631C186.604 28.631 181.939 33.3143 181.939 39.0915C181.939 44.8686 186.604 49.5519 192.36 49.5519Z" fill="#1C1C1F"/>
<path d="M153.724 26.4625C161.365 26.4625 167.56 23.2325 167.56 19.248C167.56 15.2635 161.365 12.0334 153.724 12.0334C146.083 12.0334 139.889 15.2635 139.889 19.248C139.889 23.2325 146.083 26.4625 153.724 26.4625Z" fill="#1C1C1F"/>
<path d="M140.786 32.5952C143.464 32.5952 145.636 27.1832 145.636 20.5072C145.636 13.8313 143.464 8.4193 140.786 8.4193C138.107 8.4193 135.935 13.8313 135.935 20.5072C135.935 27.1832 138.107 32.5952 140.786 32.5952Z" fill="#1C1C1F"/>
</g>
<defs>
<linearGradient id="paint0_linear" x1="304.5" y1="171" x2="304.5" y2="228" gradientUnits="userSpaceOnUse">
<stop stop-color="#FE8E61"/>
<stop offset="0.9999" stop-color="#A5CCAC" stop-opacity="0.87"/>
<stop offset="1" stop-color="#FE8E61"/>
</linearGradient>
<linearGradient id="paint1_linear" x1="309.5" y1="199" x2="309.5" y2="298" gradientUnits="userSpaceOnUse">
<stop stop-color="#FE8E61"/>
<stop offset="0.9999" stop-color="#A5CCAC" stop-opacity="0.87"/>
<stop offset="1" stop-color="#A6CCAC" stop-opacity="0"/>
</linearGradient>
<linearGradient id="paint2_linear" x1="314" y1="46" x2="314" y2="298" gradientUnits="userSpaceOnUse">
<stop stop-color="#FE8D61"/>
<stop offset="1" stop-color="#E26535"/>
</linearGradient>
<linearGradient id="paint3_linear" x1="132.074" y1="37.1043" x2="132.074" y2="162.667" gradientUnits="userSpaceOnUse">
<stop stop-color="#524C49"/>
<stop offset="1" stop-color="#0E0D0D" stop-opacity="0.87"/>
</linearGradient>
<linearGradient id="paint4_linear" x1="93.1743" y1="53.5284" x2="93.1743" y2="142.446" gradientUnits="userSpaceOnUse">
<stop stop-color="#5DDAC0"/>
<stop offset="1" stop-color="#32927E" stop-opacity="0.85"/>
</linearGradient>
<clipPath id="clip0">
<rect width="105" height="66" fill="white" transform="translate(358 46)"/>
</clipPath>
<clipPath id="clip1">
<rect width="241" height="313" fill="white" transform="translate(59)"/>
</clipPath>
</defs>
</svg>
