<svg width="904" height="632" viewBox="0 0 904 632" fill="none" xmlns="http://www.w3.org/2000/svg">
<g clip-path="url(#clip0)">
<path d="M551.042 222.055C570.395 222.055 586.083 206.373 586.083 187.027C586.083 167.682 570.395 152 551.042 152C531.689 152 516 167.682 516 187.027C516 206.373 531.689 222.055 551.042 222.055Z" fill="#FE8E61"/>
<path d="M36.6532 603.579C49.7164 603.579 60.3063 592.994 60.3063 579.936C60.3063 566.878 49.7164 556.292 36.6532 556.292C23.5899 556.292 13 566.878 13 579.936C13 592.994 23.5899 603.579 36.6532 603.579Z" fill="#FE8E61"/>
<path d="M106.141 604.271C113.398 604.271 119.281 598.39 119.281 591.135C119.281 583.881 113.398 578 106.141 578C98.8833 578 93 583.881 93 591.135C93 598.39 98.8833 604.271 106.141 604.271Z" fill="#FE8E61"/>
<path d="M868.126 558.442C887.479 558.442 903.167 542.76 903.167 523.415C903.167 504.07 887.479 488.387 868.126 488.387C848.773 488.387 833.084 504.07 833.084 523.415C833.084 542.76 848.773 558.442 868.126 558.442Z" fill="#FE8E61"/>
<path d="M26.2483 122.351C33.5057 122.351 39.389 116.47 39.389 109.216C39.389 101.961 33.5057 96.0803 26.2483 96.0803C18.9909 96.0803 13.1077 101.961 13.1077 109.216C13.1077 116.47 18.9909 122.351 26.2483 122.351Z" fill="#FE8E61"/>
<path d="M181.199 440.347C215.551 440.347 243.398 412.511 243.398 378.174C243.398 343.836 215.551 316 181.199 316C146.847 316 119 343.836 119 378.174C119 412.511 146.847 440.347 181.199 440.347Z" fill="#F38F68"/>
<path d="M817.315 376.3C829.895 376.3 840.092 366.106 840.092 353.532C840.092 340.958 829.895 330.764 817.315 330.764C804.736 330.764 794.538 340.958 794.538 353.532C794.538 366.106 804.736 376.3 817.315 376.3Z" fill="#F38F68"/>
<path d="M850.554 87.0714C875.713 87.0714 896.109 66.6843 896.109 41.5357C896.109 16.387 875.713 -4 850.554 -4C825.395 -4 805 16.387 805 41.5357C805 66.6843 825.395 87.0714 850.554 87.0714Z" fill="#F38F68"/>
<path d="M229.49 48.7932C241.586 48.7932 251.391 38.9917 251.391 26.9011C251.391 14.8104 241.586 5.00891 229.49 5.00891C217.395 5.00891 207.589 14.8104 207.589 26.9011C207.589 38.9917 217.395 48.7932 229.49 48.7932Z" fill="#F38F68"/>
<path d="M159.407 484.885C171.503 484.885 181.308 475.083 181.308 462.993C181.308 450.902 171.503 441.101 159.407 441.101C147.311 441.101 137.506 450.902 137.506 462.993C137.506 475.083 147.311 484.885 159.407 484.885Z" fill="#F38F68"/>
<path d="M865.498 230.936C877.593 230.936 887.399 221.134 887.399 209.044C887.399 196.953 877.593 187.151 865.498 187.151C853.402 187.151 843.596 196.953 843.596 209.044C843.596 221.134 853.402 230.936 865.498 230.936Z" fill="#FE8E61"/>
<path d="M830.456 603.978C843.519 603.978 854.109 593.392 854.109 580.334C854.109 567.276 843.519 556.691 830.456 556.691C817.393 556.691 806.803 567.276 806.803 580.334C806.803 593.392 817.393 603.978 830.456 603.978Z" fill="#FE8E61"/>
<path d="M883.018 605.729C890.276 605.729 896.159 599.848 896.159 592.594C896.159 585.34 890.276 579.459 883.018 579.459C875.761 579.459 869.878 585.34 869.878 592.594C869.878 599.848 875.761 605.729 883.018 605.729Z" fill="#FE8E61"/>
</g>
<defs>
<clipPath id="clip0">
<rect width="903.17" height="632" fill="white"/>
</clipPath>
</defs>
</svg>
