<svg width="463" height="324" viewBox="0 0 463 324" fill="none" xmlns="http://www.w3.org/2000/svg">
<path d="M444 288.231C444 297.153 360.501 324 257.5 324C154.499 324 71 297.153 71 288.231C71 279.31 154.499 291.693 257.5 291.693C360.501 291.693 444 279.31 444 288.231Z" fill="#166756"/>
<g clip-path="url(#clip0)">
<path d="M399.735 179.953C378.139 169.423 354.422 163.966 330.395 164C281.494 164 237.774 186.169 208.735 221C258.461 210.107 345.039 191.251 399.735 179.953Z" fill="url(#paint0_linear)"/>
<path opacity="0.1" d="M314.231 307.71C369.182 307.71 413.728 305.089 413.728 301.855C413.728 298.621 369.182 296 314.231 296C259.281 296 214.735 298.621 214.735 301.855C214.735 305.089 259.281 307.71 314.231 307.71Z" fill="#1FB494"/>
<path d="M412.689 231.894L388.662 243.17L409.927 227.403C406.471 222.053 402.588 216.987 398.316 212.252L294.117 237.935L388.238 202.331C383.937 198.568 379.37 195.115 374.571 192L215.795 217.361C198.937 238.266 189.748 264.233 189.735 291H428.735C428.725 270.241 423.19 249.852 412.689 231.894Z" fill="url(#paint1_linear)"/>
<path d="M355.312 291H381.735L372.958 276.726L366.775 276.207L370.398 272.562L348.317 236.651V230.786H345.348L327.335 187.385L330.443 183.084L327.335 180.738H325.609L315.524 88.6571H317.037L319.369 82.0101V69.107H316.26V62.851H312.375V50.73H311.597V39H310.82V50.73H309.655V62.851H306.157V69.107H302.66V82.0101L305.38 88.6571H306.952L299.39 180.738H299.357L294.306 182.302L297.026 186.994L297.22 187.385H297.026L281.904 230.786H277.986L278.375 236.651L245.735 291H272.546V284.744H270.992C270.992 284.744 276.043 250.336 312.569 247.208C349.872 246.426 356.866 283.962 356.866 283.962H355.312V291ZM373.51 278.292L374.546 281.942L369.883 278.814L373.51 278.292ZM367.811 279.335L373.51 282.984L367.293 282.463L367.811 279.335ZM361.076 282.984L364.702 278.814L366.257 282.984H361.076ZM355.006 259.915L356.339 263.043L350.566 259.915H355.006ZM353.286 257.905L353.73 255.223L358.615 258.351L353.286 257.905ZM361.594 272.036L363.148 275.686L356.413 272.036H361.594ZM354.562 269.299L357.671 265.725L359.003 269.299H354.562ZM359.891 268.853L360.335 266.171L365.22 269.299L359.891 268.853ZM365.22 276.207L363.148 272.036H368.847L365.22 276.207ZM366.108 268.406L362.112 265.725L365.22 265.278L366.108 268.406ZM364.776 263.937L359.447 263.49L362.556 260.362L364.776 263.937ZM358.115 263.49L356.339 259.915H361.224L358.115 263.49ZM359.503 257.458L355.506 254.777L358.615 254.33L359.503 257.458ZM358.171 252.989L352.842 252.542L355.95 249.414L358.171 252.989ZM351.509 252.542L349.733 248.967H354.618L351.509 252.542ZM345.514 246.566L345.958 243.884L350.843 247.012L345.514 246.566ZM349.733 252.095L343.96 248.967H348.401L349.733 252.095ZM351.731 246.119L347.735 243.438L350.843 242.991L351.731 246.119ZM350.399 241.65L345.07 241.203L348.179 238.075L350.399 241.65ZM346.846 237.628L343.738 241.203L341.962 237.628H346.846ZM341.962 240.756L336.189 237.628H340.629L341.962 240.756ZM298.323 230.786L306.352 194.814H318.786L329.414 230.786H298.323ZM325.642 241.147L319.868 238.019H324.309L325.642 241.147ZM315.428 240.365L313.873 242.153L312.985 240.365H315.428ZM312.985 241.929L310.099 240.365H312.319L312.985 241.929ZM293.723 219.642L299.552 216.123L297.997 222.77L293.723 219.642ZM296.832 223.552H287.506L292.557 220.424L296.832 223.552ZM311.134 98.793L309.49 100.447L307.846 98.793H311.134ZM307.846 98.0712L309.49 96.417L311.134 98.0712H307.846ZM311.134 102.763H307.846L309.49 101.109L311.134 102.763ZM309.819 100.778L311.463 99.1239V102.432L309.819 100.778ZM311.403 104.297V108.207L309.46 106.252L311.403 104.297ZM309.819 96.0861L311.463 94.4319V97.7404L309.819 96.0861ZM310.237 91.7851L311.533 90.4818V93.0884L310.237 91.7851ZM311.274 93.3491H308.683L309.978 92.0458L311.274 93.3491ZM309.978 91.5244L308.683 90.2211H311.274L309.978 91.5244ZM309.719 91.7851L308.424 93.0884V90.4818L309.719 91.7851ZM311.134 94.101L309.49 95.7553L307.846 94.101H311.134ZM309.161 96.0861L307.517 97.7404V94.4319L309.161 96.0861ZM309.161 100.778L307.517 102.432V99.1239L309.161 100.778ZM311.015 103.906L309.072 105.861L307.129 103.906H311.015ZM311.015 108.598H307.129L309.072 106.643L311.015 108.598ZM311.403 110.162V114.072L309.46 112.117L311.403 110.162ZM311.015 109.771L309.072 111.726L307.129 109.771H311.015ZM311.015 114.463H307.129L309.072 112.508L311.015 114.463ZM311.314 116.358V121.17L308.922 118.764L311.314 116.358ZM310.835 121.652H306.053L308.444 119.245L310.835 121.652ZM311.314 123.396V128.208L316.066 94.4319L311.314 123.396ZM310.835 122.915L308.444 125.321L306.053 122.915H310.835ZM310.835 128.69H306.053L308.444 126.283L310.835 128.69ZM311.209 130.69V136.555L308.295 133.622L311.209 130.69ZM310.626 137.141H304.797L307.712 134.209L310.626 137.141ZM311.209 139.292V145.157L308.295 142.224L311.209 139.292ZM310.626 138.705L307.712 141.638L304.797 138.705H310.626ZM310.626 145.743H304.797L307.712 142.811L310.626 145.743ZM311.104 148.149V155.067L307.667 151.608L311.104 148.149ZM310.417 155.759H303.542L306.979 152.3L310.417 155.759ZM311.015 159.428V167.248L307.129 163.338L311.015 159.428ZM310.237 168.03H302.466L306.352 164.12L310.237 168.03ZM310.955 171.248V179.67L306.77 175.459L310.955 171.248ZM310.118 170.406L305.933 174.617L301.749 170.406H310.118ZM310.118 180.512H301.749L305.933 176.301L310.118 180.512ZM300.717 205.175H292.946L297.609 202.438L300.717 205.175ZM298.386 201.656L303.437 198.528L302.272 205.566L298.386 201.656ZM301.495 207.13L300.329 213.777L297.22 210.258L301.495 207.13ZM299.552 206.348L295.666 209.476L292.946 206.348H299.552ZM299.163 214.168H291.003L295.277 211.04L299.163 214.168ZM301.828 237.628L300.051 241.203L296.943 237.628H301.828ZM303.16 237.628H307.601L301.828 240.756L303.16 237.628ZM332.407 218.747L328.354 222.16L326.355 215.634L332.407 218.747ZM325.421 213.347L323.809 206.795L328.285 209.623L325.421 213.347ZM330.276 210.271L334.751 213.099L326.61 213.657L330.276 210.271ZM329.782 208.737L325.695 205.882L332.285 205.43L329.782 208.737ZM324.452 204.791L327.369 201.848L332.206 204.26L324.452 204.791ZM322.928 205.288L321.29 198.345L326.541 201.121L322.928 205.288ZM313.466 180.512L317.65 176.301L321.835 180.512H313.466ZM312.629 179.67V171.248L316.813 175.459L312.629 179.67ZM313.466 170.406H321.835L317.65 174.617L313.466 170.406ZM313.346 168.03L317.232 164.12L321.117 168.03H313.346ZM312.569 167.248V159.428L316.455 163.338L312.569 167.248ZM312.479 155.067V148.149L315.917 151.608L312.479 155.067ZM316.604 152.3L320.041 155.759H313.167L316.604 152.3ZM313.764 100.778L312.121 102.432V99.1239L313.764 100.778ZM312.449 98.793H315.737L314.093 100.447L312.449 98.793ZM312.18 110.162L314.123 112.117L312.18 114.072V110.162ZM312.569 109.771H316.455L314.512 111.726L312.569 109.771ZM312.27 123.396L314.661 125.802L312.27 128.208V123.396ZM312.748 122.915H317.531L315.139 125.321L312.748 122.915ZM312.375 139.292L315.289 142.224L312.375 145.157V139.292ZM312.957 138.705H318.786L315.872 141.638L312.957 138.705ZM315.872 142.811L318.786 145.743H312.957L315.872 142.811ZM316.455 142.224L319.369 139.292V145.157L316.455 142.224ZM312.957 137.141L315.872 134.209L318.786 137.141H312.957ZM312.375 136.555V130.69L315.289 133.622L312.375 136.555ZM315.139 126.283L317.531 128.69H312.748L315.139 126.283ZM315.618 125.802L318.009 123.396V128.208L315.618 125.802ZM312.748 121.652L315.139 119.245L317.531 121.652H312.748ZM312.27 121.17V116.358L314.661 118.764L312.27 121.17ZM314.512 112.508L316.455 114.463H312.569L314.512 112.508ZM314.9 112.117L316.843 110.162V114.072L314.9 112.117ZM312.569 108.598L314.512 106.643L316.455 108.598H312.569ZM312.18 108.207V104.297L314.123 106.252L312.18 108.207ZM314.093 101.109L315.737 102.763H312.449L314.093 101.109ZM314.422 100.778L316.066 99.1239V102.432L314.422 100.778ZM312.449 98.0712L314.093 96.417L315.737 98.0712H312.449ZM312.121 97.7404V94.4319L313.764 96.0861L312.121 97.7404ZM313.864 91.7851L315.159 90.4818V93.0884L313.864 91.7851ZM314.9 93.3491H312.31L313.605 92.0458L314.9 93.3491ZM313.605 91.5244L312.31 90.2211H314.9L313.605 91.5244ZM313.346 91.7851L312.051 93.0884V90.4818L313.346 91.7851ZM330.526 238.019L327.418 241.594L325.642 238.019H330.526ZM329.57 222.86L333.623 219.447L338.874 222.223L329.57 222.86ZM339.57 220.999L334.293 217.834L337.236 215.28L339.57 220.999ZM333.077 217.133L328.24 214.721L335.994 214.19L333.077 217.133ZM335.448 211.876L330.998 209.437L333.501 206.131L335.448 211.876ZM332.514 203.063L328.065 200.625L330.594 197.708L332.514 203.063ZM330.153 196.954L327.263 200.288L322.012 197.512L330.153 196.954ZM322.672 179.67L318.487 175.459L322.672 171.248V179.67ZM321.895 167.248L318.009 163.338L321.895 159.428V167.248ZM317.232 162.556L313.346 158.646H321.117L317.232 162.556ZM320.729 155.067L317.292 151.608L320.729 148.149V155.067ZM316.604 150.916L313.167 147.458H320.041L316.604 150.916ZM319.369 136.555L316.455 133.622L319.369 130.69V136.555ZM315.872 133.036L312.957 130.103H318.786L315.872 133.036ZM318.009 121.17L315.618 118.764L318.009 116.358V121.17ZM315.139 118.283L312.748 115.877H317.531L315.139 118.283ZM316.843 108.207L314.9 106.252L316.843 104.297V108.207ZM314.512 105.861L312.569 103.906H316.455L314.512 105.861ZM316.066 97.7404L314.422 96.0861L316.066 94.4319V97.7404ZM314.093 95.7553L312.449 94.101H315.737L314.093 95.7553ZM306.74 104.297L308.683 106.252L306.74 108.207V104.297ZM306.74 110.162L308.683 112.117L306.74 114.072V110.162ZM310.835 115.877L308.444 118.283L306.053 115.877H310.835ZM305.575 116.358L307.966 118.764L305.575 121.17V116.358ZM305.575 123.396L307.966 125.802L305.575 128.208V123.396ZM310.626 130.103L307.712 133.036L304.797 130.103H310.626ZM304.215 130.69L307.129 133.622L304.215 136.555V130.69ZM304.215 139.292L307.129 142.224L304.215 145.157V139.292ZM310.417 147.458L306.979 150.916L303.542 147.458H310.417ZM302.855 148.149L306.292 151.608L302.855 155.067V148.149ZM310.237 158.646L306.352 162.556L302.466 158.646H310.237ZM301.689 159.428L305.575 163.338L301.689 167.248V159.428ZM300.912 171.248L305.096 175.459L300.912 179.67V171.248ZM302.66 197.746L297.609 200.874L294.5 197.746L302.66 197.746ZM294.112 198.528L296.832 201.265L292.557 204.002L294.112 198.528ZM291.78 207.13L294.5 210.258L290.226 212.995L291.78 207.13ZM297.609 215.341L292.946 218.078L289.837 215.341H297.609ZM288.672 216.514L291.78 218.86L286.729 222.379L288.672 216.514ZM290.892 237.628L285.119 240.756L286.451 237.628H290.892ZM285.119 237.628L283.343 241.203L280.234 237.628H285.119ZM278.902 238.075L282.011 241.203L276.682 241.65L278.902 238.075ZM283.898 248.967L278.125 252.095L279.457 248.967H283.898ZM276.237 247.012L281.122 243.884L281.566 246.566L276.237 247.012ZM276.237 242.991L279.346 243.438L275.349 246.119L276.237 242.991ZM278.125 248.967L276.348 252.542L273.24 248.967H278.125ZM271.908 249.414L275.016 252.542L269.687 252.989L271.908 249.414ZM271.445 272.036L264.71 275.686L266.264 272.036H271.445ZM262.637 269.299L267.522 266.171L267.966 268.853L262.637 269.299ZM268.855 269.299L270.187 265.725L273.295 269.299H268.855ZM277.292 259.915L271.519 263.043L272.851 259.915H277.292ZM269.243 258.351L274.128 255.223L274.572 257.905L269.243 258.351ZM269.243 254.33L272.352 254.777L268.355 257.458L269.243 254.33ZM271.519 259.915L269.743 263.49L266.634 259.915H271.519ZM265.302 260.362L268.411 263.49L263.082 263.937L265.302 260.362ZM262.637 265.278L265.746 265.725L261.749 268.406L262.637 265.278ZM264.71 272.036L262.637 276.207L259.011 272.036H264.71ZM254.348 278.292L257.975 278.814L253.312 281.942L254.348 278.292ZM254.348 282.984L260.047 279.335L260.565 282.463L254.348 282.984ZM254.866 276.728L257.457 272.558L261.083 276.207L254.866 276.728ZM261.601 282.984L263.156 278.814L266.782 282.984H261.601ZM268.855 282.463L265.228 278.292L271.445 277.771L268.855 282.463ZM271.963 276.207H266.264L273.517 272.558L271.963 276.207ZM275.072 268.853L271.963 265.278L277.292 264.831L275.072 268.853ZM277.736 263.49H272.851L279.068 260.362L277.736 263.49ZM275.46 258.351L276.793 254.777L279.901 258.351H275.46ZM281.677 257.905L278.569 254.33L283.898 253.883L281.677 257.905ZM284.342 252.542H279.457L285.674 249.414L284.342 252.542ZM282.455 247.012L283.787 243.438L286.895 247.012H282.455ZM288.672 246.566L285.563 242.991L290.892 242.544L288.672 246.566ZM286.451 241.203L292.668 238.075L291.336 241.203H286.451ZM292.946 242.991L296.055 243.438L292.058 246.119L292.946 242.991ZM292.946 247.012L297.831 243.884L298.275 246.566L292.946 247.012ZM293.39 241.65L295.611 238.075L298.719 241.203L293.39 241.65ZM299.163 247.012L300.495 243.438L303.604 247.012H299.163ZM305.38 246.566L302.272 242.991L307.601 242.544L305.38 246.566ZM303.16 241.203L309.377 238.075L308.045 241.203H303.16ZM309.211 240.589L312.319 242.153H309.877L309.211 240.589ZM310.099 242.823L312.763 243.047L311.209 244.834L310.099 242.823ZM312.097 245.057L313.651 243.27L314.317 245.057H312.097ZM316.094 240.589L317.204 242.376L314.54 242.153L316.094 240.589ZM314.762 244.834L314.984 243.493L317.426 245.057L314.762 244.834ZM315.872 243.27L317.426 243.047L317.87 244.611L315.872 243.27ZM318.092 238.466L324.309 241.594H319.424L318.092 238.466ZM319.868 242.935L325.198 243.382L322.089 246.957L319.868 242.935ZM323.865 247.403L326.974 243.829L328.306 247.403H323.865ZM331.859 238.466L334.079 242.041L328.75 241.594L331.859 238.466ZM329.194 246.957L329.638 244.275L334.523 247.403L329.194 246.957ZM331.415 243.829L334.523 243.382L335.411 246.51L331.415 243.829ZM334.412 238.075L340.629 241.203H335.744L334.412 238.075ZM336.189 242.544L341.517 242.991L338.409 246.566L336.189 242.544ZM343.294 243.438L344.626 247.012H340.185L343.294 243.438ZM343.516 252.542L342.184 249.414L348.401 252.542H343.516ZM343.96 253.883L349.289 254.33L346.18 257.905L343.96 253.883ZM351.065 254.777L352.397 258.351H347.957L351.065 254.777ZM348.789 260.362L355.006 263.49H350.122L348.789 260.362ZM350.566 264.831L355.895 265.278L352.786 268.853L350.566 264.831ZM354.34 272.558L361.594 276.207H355.895L354.34 272.558ZM356.413 277.771L362.63 278.292L359.003 282.463L356.413 277.771Z" fill="url(#paint2_linear)"/>
<path opacity="0.1" d="M242.975 50.4686H237.435V53.0218H242.975V50.4686Z" fill="#3E3E3E"/>
<path opacity="0.1" d="M251.924 50.4686H246.384V53.0218H251.924V50.4686Z" fill="#3E3E3E"/>
<path d="M347.776 284.214C343.183 286.919 341.375 292.355 341.375 292.355C341.375 292.355 347.014 293.407 351.608 290.702C356.201 287.998 358.009 282.561 358.009 282.561C358.009 282.561 352.37 281.509 347.776 284.214Z" fill="#3F3D56"/>
</g>
<path d="M19.0039 116.746H15.5301L15.5301 212.911H19.0039L19.0039 116.746Z" fill="#1E2120"/>
<path d="M37.6691 116.746H34.1954L34.1954 212.911H37.6691L37.6691 116.746Z" fill="#1E2120"/>
<path d="M16.378 119.356L15.5082 116.746C15.5082 116.746 25.0596 105.435 38.517 114.553L37.6472 118.473H34.1735C34.1735 118.473 28.5334 113.73 18.982 119.147L16.378 119.356Z" fill="#1E2120"/>
<path d="M14.2281 206.819C14.2281 206.819 2.50487 207.252 0.770729 220.74C-0.963412 234.228 0.770729 296.887 0.770729 296.887C0.770729 296.887 14.2281 306.893 30.7271 305.588C47.226 304.283 73.7031 299.497 73.7031 299.497L73.7031 226.026C73.7031 215.06 64.5784 206.117 53.6484 206.748C53.3913 206.748 53.1013 206.781 52.8661 206.808L14.2281 206.819Z" fill="#1C1C1F"/>
<g clip-path="url(#clip1)">
<path d="M442.637 77.9148C441.672 78.268 439.977 78.5584 438.016 78.7919C432.682 79.4276 425.374 79.6533 425.374 79.6533C425.374 79.6533 387.803 82.7485 359.644 71.2367C359.644 71.2367 355.548 69.1039 359.347 66.2333C359.933 65.8044 360.555 65.4275 361.206 65.1071L361.253 65.0609C361.685 64.6642 362.152 64.3066 362.648 63.9926C364.107 63.0557 366.57 61.9451 369.569 62.4484L443.526 74.33C443.526 74.33 446.227 76.5973 442.637 77.9148Z" fill="#FE8D61"/>
<path d="M427.901 72.5298L443.384 61.6184L450.207 62.7908L443.526 74.33C443.526 74.33 428.079 74.4527 427.901 72.5298Z" fill="#FE8D61"/>
<path d="M388.923 65.9007L419.762 57.3096L424.733 58.3416L410.802 64.5665L406.448 69.4051L388.923 65.9007Z" fill="#FE8D61"/>
<path d="M438.016 78.7919C432.682 79.4276 425.374 79.6533 425.374 79.6533C425.374 79.6533 387.803 82.7485 359.644 71.2367C359.644 71.2367 355.548 69.1039 359.347 66.2333L359.36 66.2863C359.36 66.2863 365.436 70.3655 394.467 73.7708L438.016 78.7919Z" fill="#1C1C1F"/>
<path d="M433.059 78.5564L446.846 84.1485L450.31 83.7669L442.063 77.6097C442.063 77.6097 432.088 75.4955 433.059 78.5564Z" fill="#FE8D61"/>
<path d="M364.36 66.8838C363.702 66.8946 362.195 65.7987 361.258 65.0609C361.69 64.6642 362.157 64.3066 362.653 63.9926C363.409 64.5685 364.753 65.5005 365.501 65.4642C366.58 65.42 365.35 66.8661 364.36 66.8838Z" fill="#1C1C1F"/>
<path d="M426.997 97.8863L418.145 98.3464L393.256 81.6762L388.636 78.581L386.392 77.077C390.603 73.5452 407.781 78.4161 407.781 78.4161C408.11 78.6918 408.214 79.15 408.2 79.6562C408.171 80.6039 407.723 81.7164 407.55 82.1167C407.508 82.2148 407.483 82.2668 407.483 82.2668L426.997 97.8863Z" fill="#FE8D61"/>
</g>
<g clip-path="url(#clip2)">
<path d="M122.905 31.5132C132.83 31.5132 140.876 25.2138 140.876 17.4432C140.876 9.67252 132.83 3.37315 122.905 3.37315C112.981 3.37315 104.935 9.67252 104.935 17.4432C104.935 25.2138 112.981 31.5132 122.905 31.5132Z" fill="#1C1C1F"/>
<path d="M158.846 91.0392C173.138 91.0392 184.724 79.4093 184.724 65.063C184.724 50.7168 173.138 39.0869 158.846 39.0869C144.554 39.0869 132.968 50.7168 132.968 65.063C132.968 79.4093 144.554 91.0392 158.846 91.0392Z" fill="#1C1C1F"/>
<path d="M166.753 127.48H140.876V160.671H166.753V127.48Z" fill="#FBBEBE"/>
<path d="M184.724 118.097H176.816V133.972H184.724V118.097Z" fill="#FBBEBE"/>
<path d="M144.29 288.929L141.057 298.671C141.057 298.671 139.617 305.885 144.29 306.245C148.964 306.604 156.518 305.163 156.518 305.163C156.518 305.163 157.596 301.917 156.518 299.03C155.44 296.143 152.207 288.206 152.207 288.206L144.29 288.929Z" fill="#1C1C1F"/>
<path d="M168.728 289.288C168.728 289.288 163.696 301.917 167.65 304.081C171.604 306.245 176.997 304.44 181.309 306.245C185.62 308.049 197.481 303.722 197.481 303.722C197.481 303.722 198.921 299.753 191.014 298.671C191.014 298.671 182.409 292.175 182.409 290.733C182.409 289.292 177.378 289.288 177.378 289.288H168.728Z" fill="#1C1C1F"/>
<path d="M167.65 145.342C167.65 145.342 138.181 151.474 134.59 149.67C130.998 147.865 127.403 174.218 127.403 174.218C127.403 174.218 125.962 190.093 130.994 211.378C136.025 232.662 130.994 243.127 130.994 243.127C130.994 243.127 131.714 263.33 137.108 272.713C142.502 282.096 142.497 290.752 142.497 290.752C142.497 290.752 152.913 291.834 153.28 289.306C153.28 289.306 148.964 279.205 149.684 269.826C150.404 260.448 147.529 242.404 147.529 242.404C147.529 242.404 152.202 219.674 151.482 211.037C150.762 202.399 154 183.979 155.794 187.224C157.587 190.47 162.265 206.345 162.265 209.596C162.265 212.846 164.077 234.485 165.141 235.931C166.205 237.376 165.857 241.704 165.499 243.868C165.141 246.032 165.141 262.266 166.934 270.926C168.728 279.587 167.297 289.324 167.655 290.77C168.012 292.215 178.438 291.129 178.795 288.601C178.795 288.601 180.236 273.09 180.956 270.926C181.676 268.762 182.015 241.304 182.015 241.304C182.015 241.304 182.731 220.02 183.451 217.856C184.171 215.692 185.262 169.149 180.575 163.758C175.888 158.366 177.699 144.637 177.699 144.637L167.65 145.342Z" fill="#1C1C1F"/>
<path d="M143.425 82.4926C142.094 85.0111 140.753 87.5524 139.92 90.2845C139.087 93.0167 138.797 95.9762 139.581 98.722C140.141 100.437 140.92 102.072 141.899 103.586C142.678 105.033 143.665 106.357 144.829 107.514C147.547 110.005 151.496 110.505 155.164 110.896C155.793 111.002 156.436 110.991 157.062 110.864C157.563 110.718 158.027 110.464 158.42 110.119C160.028 108.755 160.757 106.673 161.346 104.664C162.746 99.885 163.749 94.9979 164.344 90.0527C164.482 89.2708 164.482 88.4706 164.344 87.6887C164.027 86.3249 162.94 85.2657 162.152 84.0928C161.208 82.6913 160.669 81.055 160.594 79.3649C160.562 78.5421 160.594 77.6329 160.078 77.0055C159.734 76.664 159.318 76.4059 158.86 76.2509C156.718 75.3417 154.58 74.4325 152.433 73.5596C151.138 73.0232 148.81 71.5957 147.452 72.6504C146.288 73.5596 146.849 75.669 146.351 76.9328C145.586 78.8512 144.386 80.6742 143.425 82.4926Z" fill="#FBBEBE"/>
<path opacity="0.1" d="M143.425 82.4926C142.094 85.0111 140.753 87.5524 139.92 90.2845C139.087 93.0167 138.797 95.9762 139.581 98.722C140.141 100.437 140.92 102.072 141.899 103.586C142.678 105.033 143.665 106.357 144.829 107.514C147.547 110.005 151.496 110.505 155.164 110.896C155.793 111.002 156.436 110.991 157.062 110.864C157.563 110.718 158.027 110.464 158.42 110.119C160.028 108.755 160.757 106.673 161.346 104.664C162.746 99.885 163.749 94.9979 164.344 90.0527C164.482 89.2708 164.482 88.4706 164.344 87.6887C164.027 86.3249 162.94 85.2657 162.152 84.0928C161.208 82.6913 160.669 81.055 160.594 79.3649C160.562 78.5421 160.594 77.6329 160.078 77.0055C159.734 76.664 159.318 76.4059 158.86 76.2509C156.718 75.3417 154.58 74.4325 152.433 73.5596C151.138 73.0232 148.81 71.5957 147.452 72.6504C146.288 73.5596 146.849 75.669 146.351 76.9328C145.586 78.8512 144.386 80.6742 143.425 82.4926Z" fill="black"/>
<path d="M157.587 83.2882C164.535 83.2882 170.168 77.634 170.168 70.6592C170.168 63.6845 164.535 58.0303 157.587 58.0303C150.639 58.0303 145.006 63.6845 145.006 70.6592C145.006 77.634 150.639 83.2882 157.587 83.2882Z" fill="#FBBEBE"/>
<path d="M162.003 102.509C159.62 103.368 157.161 104.109 154.63 104.2C152.733 104.219 150.841 104.016 148.991 103.595C145.17 102.832 141.416 101.757 137.769 100.381C136.99 101.922 136.782 103.682 136.714 105.409C136.519 110.633 137.556 115.815 137.955 121.029C138.457 127.658 137.955 134.431 139.653 140.85C139.751 139.759 140.174 138.723 140.867 137.877C141.444 137.253 142.134 136.744 142.9 136.377C146.328 134.598 150.275 134.105 154.032 134.986C156.21 135.504 158.524 136.472 160.59 135.604C161.821 135.081 162.714 133.981 163.397 132.826C164.558 130.743 165.387 128.489 165.852 126.148C167.211 120.129 167.392 113.906 167.555 107.732C167.6 106.082 168.307 101.177 166.944 99.9676C165.988 99.1266 165.707 100.327 165.019 100.954C164.123 101.664 163.099 102.192 162.003 102.509Z" fill="#B0F1E4"/>
<path d="M144.295 80.8287C143.457 80.1696 142.216 80.3741 141.292 80.9333C140.369 81.4924 139.621 82.2653 138.684 82.7744C136.084 84.1883 132.593 83.1518 130.124 84.7974C127.806 86.3476 127.407 89.539 127.226 92.3302C126.773 99.4221 126.384 106.564 124.685 113.465C124.232 115.283 123.689 117.147 123.861 119.02C123.997 120.09 124.249 121.142 124.613 122.157L126.841 129.144C127.874 132.39 128.92 135.686 129.028 139.091C129.137 142.496 128.34 145.733 127.547 148.983C125.981 155.387 124.962 161.913 124.5 168.49C124.359 170.668 124.3 172.941 125.179 174.936C126.085 177.023 127.923 178.573 129.862 179.751C131.8 180.928 133.906 181.837 135.804 183.088C139.612 185.602 142.669 189.561 147.125 190.593C149.168 191.048 151.306 190.866 153.362 190.466C153.362 190.466 152.198 137.404 148.96 129.826C145.722 122.248 142.85 89.4208 142.85 88.3388C142.85 87.2568 144.295 80.8287 144.295 80.8287Z" fill="#5DDAC0"/>
<path d="M161.785 82.5653C161.785 82.5653 178.791 82.5653 181.309 91.5847C183.827 100.604 174.122 115.397 174.122 115.397C174.122 115.397 178.075 144.619 179.869 147.506C181.662 150.392 180.951 156.143 180.951 156.143C182.253 160.102 182.5 164.333 181.667 168.417C180.231 174.909 174.837 186.456 174.837 186.456C174.837 186.456 167.65 186.456 165.852 190.784C164.054 195.112 163.696 172.022 163.696 172.022C163.696 172.022 157.229 129.812 157.587 127.289C157.945 124.766 159.743 103.836 160.463 98.0628C161.183 92.2893 162.75 84.7292 161.785 82.5653Z" fill="#5DDAC0"/>
<path d="M174.837 88.3388C174.837 88.3388 183.107 90.8619 183.107 93.7486C183.107 96.6354 185.638 112.146 185.638 117.197C185.638 122.248 184.561 122.971 185.638 124.775C186.716 126.58 174.14 125.857 174.14 125.857L171.853 105.296L174.837 88.3388Z" fill="#5DDAC0"/>
<path d="M125.958 114.315C125.958 114.315 142.135 115.397 145.011 113.228C147.886 111.06 160.105 116.115 161.183 119.002C162.261 121.889 143.928 122.248 141.057 122.248C138.186 122.248 124.522 126.58 124.522 126.58L125.958 114.315Z" fill="#A0616A"/>
<path d="M92.6577 282.369C92.6577 282.369 85.1172 301.462 89.0346 303.735C92.952 306.008 134.259 304.39 134.259 304.39C134.259 304.39 141.138 300.117 133.276 297.153C133.276 297.153 126.719 296.825 122.462 294.193C118.205 291.561 113.282 286.628 113.282 286.628C113.282 286.628 112.956 279.391 110.334 281.037C109.549 281.555 108.882 282.233 108.374 283.026C107.866 283.819 107.529 284.71 107.385 285.642L92.6577 282.369Z" fill="#1C1C1F"/>
<path opacity="0.1" d="M92.6577 282.369C92.6577 282.369 85.1172 301.462 89.0346 303.735C92.952 306.008 134.259 304.39 134.259 304.39C134.259 304.39 141.138 300.117 133.276 297.153C133.276 297.153 126.719 296.825 122.462 294.193C118.205 291.561 113.282 286.628 113.282 286.628C113.282 286.628 112.956 279.391 110.334 281.037C109.549 281.555 108.882 282.233 108.374 283.026C107.866 283.819 107.529 284.71 107.385 285.642L92.6577 282.369Z" fill="black"/>
<path d="M81.0232 288.206C81.0232 288.206 72.7581 309.118 77.0695 311.654C81.3809 314.191 126.669 312.377 126.669 312.377C126.669 312.377 134.218 307.69 125.591 304.44C125.591 304.44 118.404 304.081 113.73 301.194C109.056 298.307 103.667 292.884 103.667 292.884C103.667 292.884 103.309 284.946 100.434 286.751C99.573 287.32 98.8407 288.063 98.2837 288.933C97.7268 289.802 97.3576 290.78 97.2 291.802L81.0232 288.206Z" fill="#1C1C1F"/>
<path d="M123.444 155.443L118.413 200.903C118.413 200.903 116.601 222.552 111.226 227.239C111.226 227.239 111.226 234.094 109.414 236.258L106.896 264.762C106.896 264.762 110.492 275.218 110.134 277.036C109.777 278.855 111.57 284.61 111.212 285.333C110.854 286.056 93.9574 285.333 93.9574 285.333L97.5533 227.248L108.694 146.437L123.444 155.443Z" fill="#1C1C1F"/>
<path opacity="0.1" d="M123.444 155.443L118.413 200.903C118.413 200.903 116.601 222.552 111.226 227.239C111.226 227.239 111.226 234.094 109.414 236.258L106.896 264.762C106.896 264.762 110.492 275.218 110.134 277.036C109.777 278.855 111.57 284.61 111.212 285.333C110.854 286.056 93.9574 285.333 93.9574 285.333L97.5533 227.248L108.694 146.437L123.444 155.443Z" fill="#1C1C1F"/>
<path d="M114.459 153.997C114.459 153.997 110.506 191.157 108.708 199.094C107.577 204.321 106.857 209.629 106.552 214.969C106.552 214.969 106.194 226.516 102.956 229.762C102.011 230.701 101.269 231.826 100.775 233.065C100.281 234.305 100.046 235.633 100.085 236.967C100.085 236.967 96.8468 273.404 98.6447 277.736C100.443 282.069 102.241 285.674 100.456 288.556C98.6719 291.438 78.8901 291.443 78.8901 289.279C78.8901 287.115 78.8901 285.31 77.8123 284.228C76.7344 283.146 77.8123 276.291 77.8123 276.291C77.8123 276.291 73.5009 244.182 77.4545 234.803C81.4081 225.425 83.2061 199.799 83.2061 199.799C83.2061 199.799 80.3303 170.577 76.7344 165.885C73.1386 161.194 77.4545 144.601 77.4545 144.601L114.459 153.997Z" fill="#1C1C1F"/>
<path d="M104.342 38.6005C104.759 39.5552 105.759 40.0871 106.67 40.5917C111.946 43.5102 116.361 47.7426 120.709 51.925C119.624 48.2296 119.856 44.2701 121.366 40.7281C121.882 39.5234 122.566 38.2232 122.194 36.9639C121.918 36.0547 121.135 35.3637 120.383 34.7727C118.608 33.3946 116.752 32.124 114.826 30.9677C113.467 30.1585 110.714 28.0082 109.17 28.2401C109.088 30.3358 109.047 32.2088 108.133 34.1499C107.906 34.6318 104.5 38.9642 104.342 38.6005Z" fill="#A0616A"/>
<path d="M122.724 43.2375C130.863 43.2375 137.461 36.6145 137.461 28.4446C137.461 20.2748 130.863 13.6518 122.724 13.6518C114.585 13.6518 107.988 20.2748 107.988 28.4446C107.988 36.6145 114.585 43.2375 122.724 43.2375Z" fill="#A0616A"/>
<path d="M123.444 63.4447C123.444 63.4447 125.958 50.8157 118.771 46.4879C111.583 42.1601 103.318 37.1094 103.318 37.1094C103.318 37.1094 100.8 36.7457 99.7226 42.1601C99.7226 42.1601 79.2388 46.1288 77.0786 65.6086C74.9183 85.0884 78.5187 113.592 78.5187 113.592C78.5187 113.592 75.2852 138.486 71.3315 151.833C71.3315 151.833 68.0934 154.72 82.4724 150.392C96.8513 146.065 122.004 162.667 122.004 162.667C122.004 162.667 124.522 160.139 124.522 158.334C124.522 156.53 127.398 146.06 127.398 146.06C127.398 146.06 129.912 101.686 130.989 96.6354C132.067 91.5847 126.678 64.1675 123.444 63.4447Z" fill="url(#paint3_linear)"/>
<path d="M101.163 88.3388C101.163 88.3388 120.926 76.7919 116.973 61.999C113.019 47.2062 104.396 42.5192 104.396 42.5192C104.396 42.5192 90.3797 37.8277 78.5187 52.9751L79.2388 59.8306C79.2388 59.8306 92.1776 33.4953 106.194 50.0884C120.211 66.6815 101.163 88.3388 101.163 88.3388Z" fill="#5DDAC0"/>
<path d="M79.9544 53.7025V112.86L76.2815 133.04L74.5651 142.446H62.0022L44.3942 135.95L44.3942 92.3075C44.3942 92.3075 59.1264 63.081 63.8001 57.6712C68.4739 52.2614 79.9544 53.7025 79.9544 53.7025Z" fill="url(#paint4_linear)"/>
<path opacity="0.1" d="M76.277 133.045L74.5651 142.45H61.9841L44.3761 135.959L76.277 133.045Z" fill="black"/>
<path d="M75.643 120.443L106.552 82.5608L79.2343 121.889L76.3585 122.607L75.643 120.443Z" fill="#5DDAC0"/>
<path d="M119.251 29.9721C120.089 29.4038 121.139 29.2993 122.145 29.1993C123.15 29.0992 124.201 28.9629 125.002 28.3446C126.393 27.2717 126.497 25.1987 127.516 23.7667C128.988 21.6892 131.927 21.4392 134.468 21.5392C136.021 21.6028 137.692 21.6983 138.996 20.8573C140.301 20.0162 140.944 18.3569 141.397 16.8249C141.936 15.0065 142.28 12.788 140.944 11.4424C140.038 10.5059 138.571 10.3195 137.547 9.49669C136.524 8.67385 136.048 7.26003 135.473 6.02805C134.816 4.52307 133.778 3.21733 132.461 2.24119C130.532 0.87738 128.068 0.595525 125.718 0.618256C123.367 0.640986 121.008 0.954663 118.676 0.663715C116.764 0.427321 114.858 -0.209124 112.956 0.0727313C110.528 0.431869 108.522 2.27302 107.322 4.4233C106.122 6.57358 105.615 9.02844 105.116 11.4378L103.758 17.9978C103.341 20.0344 102.92 22.1211 103.241 24.1713C103.912 28.4264 107.662 31.8087 107.92 36.1047C108.166 34.9178 108.702 33.811 109.48 32.8834C110.258 31.9559 111.253 31.2367 112.376 30.7904C112.657 30.6526 112.976 30.6126 113.282 30.6767C113.653 30.7995 113.871 31.1722 114.106 31.4859C114.722 32.3088 116.656 33.5544 117.729 32.9725C118.753 32.4497 118.019 30.8131 119.251 29.9721Z" fill="#1C1C1F"/>
<path d="M262.533 300.83C266.105 300.83 269 297.924 269 294.338C269 290.753 266.105 287.847 262.533 287.847C258.961 287.847 256.066 290.753 256.066 294.338C256.066 297.924 258.961 300.83 262.533 300.83Z" fill="#1C1C1F"/>
<path d="M82.1146 97.3582C82.1146 97.3582 79.5966 113.228 90.0174 111.787C90.0174 111.787 95.4112 111.065 96.1312 111.787C96.8513 112.51 123.444 107.819 127.04 103.85C127.04 103.85 131.352 102.409 133.507 104.573C135.663 106.737 157.229 108.901 150.767 102.404C144.304 95.908 134.237 94.4669 134.237 94.4669L120.578 95.1852C120.578 95.1852 113.391 97.3536 109.079 95.1852C104.768 93.0167 92.5354 93.7668 92.5354 93.7668L82.1146 97.3582Z" fill="#A0616A"/>
<path d="M96.8468 47.2107C96.8468 47.2107 80.6745 49.0292 80.6745 72.464L80.6745 102.404C80.6745 102.404 89.6596 98.4356 91.4575 98.7947C93.2555 99.1539 100.443 94.1032 100.443 94.1032C100.443 94.1032 108.708 74.6279 107.988 69.2181C107.268 63.8083 107.63 47.929 96.8468 47.2107Z" fill="#202021"/>
<path d="M170.884 105.291L154.711 116.838L164.774 117.92L178.791 106.014L170.884 105.291Z" fill="#1C1C1F"/>
<path d="M183.465 122.611C183.465 122.611 187.418 134.886 182.029 138.486C176.64 142.087 167.65 125.857 167.65 125.857C167.65 125.857 157.945 114.315 164.416 111.787C170.888 109.26 173.528 120.266 173.528 120.266L182.015 127.662L183.465 122.611Z" fill="#FBBEBE"/>
<path d="M158.846 70.4774C166.785 70.4774 173.22 66.3579 173.22 61.2762C173.22 56.1945 166.785 52.075 158.846 52.075C150.907 52.075 144.472 56.1945 144.472 61.2762C144.472 66.3579 150.907 70.4774 158.846 70.4774Z" fill="#1C1C1F"/>
<path d="M161.36 49.5519C167.115 49.5519 171.78 44.8686 171.78 39.0915C171.78 33.3143 167.115 28.631 161.36 28.631C155.604 28.631 150.939 33.3143 150.939 39.0915C150.939 44.8686 155.604 49.5519 161.36 49.5519Z" fill="#1C1C1F"/>
<path d="M122.724 26.4625C130.365 26.4625 136.56 23.2325 136.56 19.248C136.56 15.2635 130.365 12.0334 122.724 12.0334C115.083 12.0334 108.889 15.2635 108.889 19.248C108.889 23.2325 115.083 26.4625 122.724 26.4625Z" fill="#1C1C1F"/>
<path d="M109.786 32.5952C112.464 32.5952 114.636 27.1832 114.636 20.5072C114.636 13.8313 112.464 8.4193 109.786 8.4193C107.107 8.4193 104.935 13.8313 104.935 20.5072C104.935 27.1832 107.107 32.5952 109.786 32.5952Z" fill="#1C1C1F"/>
</g>
<path d="M454.762 288.547C449.725 287.695 444.88 286.963 440.228 286.352L442.067 282.791C441.447 282.576 438.723 284.615 438.723 284.615L441.136 274.281C438.018 274.656 436.432 285.208 436.432 285.208L432.948 281.641L434.635 285.652C422.398 284.175 410.086 283.401 397.76 283.334L399.334 280.287C398.714 280.072 395.99 282.111 395.99 282.111L398.403 271.776C395.284 272.152 393.699 282.704 393.699 282.704L390.214 279.137L392.001 283.385C384.915 283.502 377.84 283.982 370.803 284.823C372.395 280.076 377.803 275.561 377.803 275.561C373.673 276.787 371.507 278.843 370.375 280.759C370.274 270.964 371.905 261.229 375.193 252C375.193 252 366.656 270.55 367.745 283.001L367.876 285.212C360.639 286.247 357 287.324 357 287.324L454.762 288.547Z" fill="#3F3D56"/>
<path d="M332.555 284.973C327.517 284.12 322.673 283.389 318.021 282.777L319.86 279.217C319.24 279.002 316.515 281.041 316.515 281.041L318.929 270.706C315.81 271.081 314.224 281.634 314.224 281.634L310.74 278.066L312.427 282.077C300.19 280.6 287.878 279.826 275.553 279.76L277.126 276.712C276.506 276.497 273.782 278.536 273.782 278.536L276.195 268.202C273.077 268.577 271.491 279.129 271.491 279.129L268.007 275.562L269.793 279.81C262.708 279.927 255.632 280.407 248.596 281.248C250.188 276.501 255.596 271.986 255.596 271.986C251.466 273.213 249.299 275.268 248.167 277.184C248.066 267.39 249.697 257.654 252.985 248.425C252.985 248.425 244.449 266.975 245.538 279.427L245.668 281.638C238.431 282.672 234.792 283.749 234.792 283.749L332.555 284.973Z" fill="#3F3D56"/>
<path d="M296.5 297C349.795 297 393 293.418 393 289C393 284.582 349.795 281 296.5 281C243.205 281 200 284.582 200 289C200 293.418 243.205 297 296.5 297Z" fill="#166756"/>
<defs>
<linearGradient id="paint0_linear" x1="304.235" y1="164" x2="304.235" y2="221" gradientUnits="userSpaceOnUse">
<stop stop-color="#FE8E61"/>
<stop offset="0.9999" stop-color="#A5CCAC" stop-opacity="0.87"/>
<stop offset="1" stop-color="#FE8E61"/>
</linearGradient>
<linearGradient id="paint1_linear" x1="309.235" y1="192" x2="309.235" y2="291" gradientUnits="userSpaceOnUse">
<stop stop-color="#FE8E61"/>
<stop offset="0.9999" stop-color="#A5CCAC" stop-opacity="0.87"/>
<stop offset="1" stop-color="#A6CCAC" stop-opacity="0"/>
</linearGradient>
<linearGradient id="paint2_linear" x1="313.735" y1="39" x2="313.735" y2="291" gradientUnits="userSpaceOnUse">
<stop stop-color="#FE8D61"/>
<stop offset="1" stop-color="#E26535"/>
</linearGradient>
<linearGradient id="paint3_linear" x1="101.074" y1="37.1043" x2="101.074" y2="162.667" gradientUnits="userSpaceOnUse">
<stop stop-color="#524C49"/>
<stop offset="1" stop-color="#0E0D0D" stop-opacity="0.87"/>
</linearGradient>
<linearGradient id="paint4_linear" x1="62.1743" y1="53.5284" x2="62.1743" y2="142.446" gradientUnits="userSpaceOnUse">
<stop stop-color="#5DDAC0"/>
<stop offset="1" stop-color="#32927E" stop-opacity="0.85"/>
</linearGradient>
<clipPath id="clip0">
<rect width="365" height="303" fill="white" transform="translate(63.7346 16)"/>
</clipPath>
<clipPath id="clip1">
<rect width="105" height="66" fill="white" transform="translate(357.735 39)"/>
</clipPath>
<clipPath id="clip2">
<rect width="241" height="313" fill="white" transform="translate(28)"/>
</clipPath>
</defs>
</svg>
