<svg width="424" height="304" viewBox="0 0 424 304" fill="none" xmlns="http://www.w3.org/2000/svg">
<ellipse cx="211.515" cy="145.75" rx="188.229" ry="145.75" fill="url(#paint0_linear)"/>
<g clip-path="url(#clip0)">
<path d="M51.2373 303.371L50.5097 303.209C58.6227 267.562 79.0114 235.191 107.92 212.06C129.776 194.599 155.77 182.921 183.454 178.125C211.139 173.33 239.604 175.575 266.168 184.649C292.732 193.723 316.522 209.327 335.298 229.992C354.073 250.658 367.217 275.705 373.49 302.774L372.763 302.937C355.589 228.435 289.502 176.402 212.05 176.402C135.613 176.402 67.9815 229.8 51.2373 303.371Z" fill="#FD5D48"/>
<path d="M155.554 93.583C166.74 93.583 175.808 84.6233 175.808 73.571C175.808 62.5187 166.74 53.5591 155.554 53.5591C144.367 53.5591 135.299 62.5187 135.299 73.571C135.299 84.6233 144.367 93.583 155.554 93.583Z" fill="#FE8D61"/>
<path d="M68.2914 298.825C68.9231 301.132 71.0868 302.561 71.0868 302.561C71.0868 302.561 72.2263 300.249 71.5946 297.942C70.9629 295.635 68.7992 294.206 68.7992 294.206C68.7992 294.206 67.6597 296.518 68.2914 298.825Z" fill="#FD5D48"/>
<path d="M69.2196 298.329C70.953 299.996 71.1647 302.559 71.1647 302.559C71.1647 302.559 68.5661 302.419 66.8327 300.752C65.0994 299.085 64.8876 296.522 64.8876 296.522C64.8876 296.522 67.4863 296.662 69.2196 298.329Z" fill="#32D760"/>
<path d="M116.397 298.825C117.029 301.132 119.192 302.561 119.192 302.561C119.192 302.561 120.332 300.249 119.7 297.942C119.069 295.635 116.905 294.206 116.905 294.206C116.905 294.206 115.765 296.518 116.397 298.825Z" fill="#FD5D48"/>
<path d="M117.325 298.329C119.059 299.996 119.27 302.559 119.27 302.559C119.27 302.559 116.672 302.419 114.938 300.752C113.205 299.085 112.993 296.522 112.993 296.522C112.993 296.522 115.592 296.662 117.325 298.329Z" fill="#32D760"/>
<path d="M125.936 115.052L118.32 109.032L160.971 71.4067H269.122V104.517L199.052 151.172L125.936 115.052Z" fill="#FD5D48"/>
<path d="M288.841 92.5122V72.1584H274.481V77.143L269.122 71.4067L234.087 109.032L220.378 118.062L199.121 271.504L231.179 303.177H305.68V110.537L288.841 92.5122Z" fill="#923D3D"/>
<path d="M234.087 109.032H118.32V303.177H234.087V109.032Z" fill="#FE8E61"/>
<path d="M184.581 255.769H163.256V303.177H184.581V255.769Z" fill="#F38F68"/>
<path d="M140.407 269.314V261.789H131.267V269.314H139.645H140.407Z" fill="#FD5D48"/>
<path d="M139.645 275.334H131.267V282.859H140.407V275.334H139.645Z" fill="#FD5D48"/>
<path d="M155.639 261.789H146.5V269.314H155.639V261.789Z" fill="#FD5D48"/>
<path d="M155.639 275.334H146.5V282.859H155.639V275.334Z" fill="#FD5D48"/>
<path d="M202.86 269.314V261.789H193.721V269.314H202.099H202.86Z" fill="#FD5D48"/>
<path d="M202.099 275.334H193.721V282.859H202.86V275.334H202.099Z" fill="#FD5D48"/>
<path d="M218.093 261.789H208.953V269.314H218.093V261.789Z" fill="#FD5D48"/>
<path d="M218.093 275.334H208.953V282.859H218.093V275.334Z" fill="#FD5D48"/>
<path d="M266.837 118.814V111.289H257.698V118.814H266.076H266.837Z" fill="#ACA733"/>
<path d="M266.076 124.834H257.698V132.359H266.837V124.834H266.076Z" fill="#ACA733"/>
<path d="M282.07 111.289H272.93V118.814H282.07V111.289Z" fill="#ACA733"/>
<path d="M282.07 124.834H272.93V132.359H282.07V124.834Z" fill="#ACA733"/>
<path d="M266.837 160.954V153.429H257.698V160.954H266.076H266.837Z" fill="#ACA733"/>
<path d="M266.076 166.974H257.698V174.499H266.837V166.974H266.076Z" fill="#ACA733"/>
<path d="M282.07 153.429H272.93V160.954H282.07V153.429Z" fill="#ACA733"/>
<path d="M282.07 166.974H272.93V174.499H282.07V166.974Z" fill="#ACA733"/>
<path d="M266.837 203.094V195.569H257.698V203.094H266.076H266.837Z" fill="#ACA733"/>
<path d="M266.076 209.114H257.698V216.639H266.837V209.114H266.076Z" fill="#ACA733"/>
<path d="M282.07 195.569H272.93V203.094H282.07V195.569Z" fill="#ACA733"/>
<path d="M282.07 209.114H272.93V216.639H282.07V209.114Z" fill="#ACA733"/>
<path d="M266.837 245.235V237.709H257.698V245.235H266.076H266.837Z" fill="#ACA733"/>
<path d="M266.076 251.254H257.698V258.779H266.837V251.254H266.076Z" fill="#ACA733"/>
<path d="M282.07 237.709H272.93V245.234H282.07V237.709Z" fill="#ACA733"/>
<path d="M282.07 251.254H272.93V258.779H282.07V251.254Z" fill="#ACA733"/>
<path d="M219.616 118.814H131.267V136.874H219.616V118.814Z" fill="#FD5D48"/>
<path d="M219.616 154.934H131.267V172.994H219.616V154.934Z" fill="#FD5D48"/>
<path d="M219.616 191.054H131.267V209.114H219.616V191.054Z" fill="#FD5D48"/>
<path d="M219.616 227.174H131.267V245.234H219.616V227.174Z" fill="#FD5D48"/>
<path d="M424 302.419H0V303.156H424V302.419Z" fill="#FD5D48"/>
<path d="M73.1949 217.341H71.0042V302.839H73.1949V217.341Z" fill="#FD5D48"/>
<path d="M93.4132 228.237C93.5527 258.134 72.2637 282.467 72.2637 282.467C72.2637 282.467 50.7486 258.328 50.6091 228.432C50.4697 198.535 71.7587 174.202 71.7587 174.202C71.7587 174.202 93.2738 198.34 93.4132 228.237Z" fill="#32D760"/>
<path opacity="0.1" d="M93.4132 228.237C93.5527 258.134 72.2637 282.467 72.2637 282.467C72.2637 282.467 50.7486 258.328 50.6091 228.432C50.4697 198.535 71.7587 174.202 71.7587 174.202C71.7587 174.202 93.2738 198.34 93.4132 228.237Z" fill="black"/>
<path d="M44.7149 217.341H42.5241V302.839H44.7149V217.341Z" fill="#FD5D48"/>
<path d="M64.9332 228.237C65.0726 258.134 43.7837 282.467 43.7837 282.467C43.7837 282.467 22.2685 258.328 22.1291 228.432C21.9897 198.535 43.2786 174.202 43.2786 174.202C43.2786 174.202 64.7937 198.34 64.9332 228.237Z" fill="#32D760"/>
<path d="M352.608 108.911C335.351 108.989 321.304 109.241 321.304 109.241C321.304 109.241 338.001 87.3901 352.545 95.4859C367.09 103.582 383.798 108.957 383.798 108.957C383.798 108.957 369.865 108.832 352.608 108.911Z" fill="white"/>
<path d="M65.0933 150.913C47.8362 150.992 33.7896 151.244 33.7896 151.244C33.7896 151.244 50.4862 129.392 65.0307 137.488C79.5752 145.584 96.2831 150.959 96.2831 150.959C96.2831 150.959 82.3504 150.835 65.0933 150.913Z" fill="white"/>
<path d="M127.742 63.2241C110.485 63.3027 96.4387 63.5546 96.4387 63.5546C96.4387 63.5546 113.135 41.7034 127.68 49.7991C142.224 57.8948 158.932 63.27 158.932 63.27C158.932 63.27 144.999 63.1455 127.742 63.2241Z" fill="white"/>
<path d="M388.166 217.341H385.975V302.839H388.166V217.341Z" fill="#FD5D48"/>
<path d="M408.384 228.237C408.524 258.134 387.235 282.467 387.235 282.467C387.235 282.467 365.72 258.328 365.58 228.432C365.441 198.535 386.73 174.202 386.73 174.202C386.73 174.202 408.245 198.34 408.384 228.237Z" fill="#32D760"/>
<path d="M307.528 249.769H329.637V244.496H341.835V249.769H364.707V273.12H341.835V302.497H329.637V273.12H307.528L296.091 260.315L307.528 249.769Z" fill="#FD5D48"/>
</g>
<defs>
<linearGradient id="paint0_linear" x1="211.515" y1="0" x2="211.515" y2="291.499" gradientUnits="userSpaceOnUse">
<stop stop-color="#5DDAC0"/>
<stop offset="1" stop-color="#099F80" stop-opacity="0"/>
</linearGradient>
<clipPath id="clip0">
<rect width="424" height="255.371" fill="white" transform="translate(0 48)"/>
</clipPath>
</defs>
</svg>
