<svg width="330" height="240" viewBox="0 0 330 240" fill="none" xmlns="http://www.w3.org/2000/svg">
<g clip-path="url(#clip0)">
<path d="M279.324 240C306.814 240 329.099 236.5 329.099 232.183C329.099 227.866 306.814 224.367 279.324 224.367C251.833 224.367 229.548 227.866 229.548 232.183C229.548 236.5 251.833 240 279.324 240Z" fill="#3F3D56"/>
<path d="M321.424 203.405C321.327 220.198 310.8 226.006 297.857 225.937C297.557 225.936 297.258 225.931 296.96 225.923C296.36 225.908 295.767 225.879 295.18 225.836C283.503 224.987 274.463 218.776 274.554 203.158C274.648 186.996 296.477 166.714 298.114 165.214C298.116 165.214 298.116 165.214 298.117 165.213C298.179 165.156 298.211 165.127 298.211 165.127C298.211 165.127 321.522 186.613 321.424 203.405Z" fill="#49AF99"/>
<path d="M297.019 223.364L305.657 212.015L296.991 224.615L296.96 225.923C296.36 225.908 295.767 225.879 295.18 225.836L296.201 209.041L296.194 208.911L296.21 208.886L296.307 207.299L287.767 194.577L296.34 206.11L296.36 206.447L297.131 193.757L289.833 180.619L297.235 191.527L298.114 165.214L298.118 165.127L298.117 165.213L297.876 185.966L305.264 177.777L297.834 187.753L297.573 199.118L304.493 188.246L297.536 200.788L297.392 207.108L307.431 191.978L297.34 209.312L297.019 223.364Z" fill="#3F3D56"/>
<path d="M274.637 75.718C283.302 75.718 290.326 69.0352 290.326 60.7915C290.326 52.5477 283.302 45.8649 274.637 45.8649C265.973 45.8649 258.949 52.5477 258.949 60.7915C258.949 69.0352 265.973 75.718 274.637 75.718Z" fill="#2F2E41"/>
<path d="M272.302 76.1423C278.186 76.1423 282.956 71.6041 282.956 66.006C282.956 60.4079 278.186 55.8697 272.302 55.8697C266.419 55.8697 261.649 60.4079 261.649 66.006C261.649 71.6041 266.419 76.1423 272.302 76.1423Z" fill="#FFB8B8"/>
<path d="M265.968 71.4851C265.968 71.4851 270.575 81.6214 268.271 82.7172C265.968 83.813 264.816 88.7442 264.816 88.7442L270.863 100.798L279.213 105.729H284.108C284.108 105.729 289.002 84.9088 287.275 82.4432C285.547 79.9776 279.213 78.6079 279.213 78.6079C279.213 78.6079 277.773 75.3204 278.349 72.3069C278.925 69.2935 265.968 71.4851 265.968 71.4851Z" fill="#FFB8B8"/>
<path d="M259.057 100.25L251.571 94.4972C251.571 94.4972 238.038 85.4567 239.766 92.0316C241.494 98.6065 249.268 99.1544 249.268 99.1544L262.225 109.017L259.057 100.25Z" fill="#FFB8B8"/>
<path d="M258.482 130.385C258.482 130.385 255.026 144.083 258.482 162.712L259.921 170.108C259.921 170.108 259.921 175.861 261.361 178.053C261.361 178.053 265.104 210.654 267.12 210.654C269.135 210.654 275.47 209.558 276.045 208.736C276.621 207.914 264.816 129.015 264.816 129.015L258.482 130.385Z" fill="#2F2E41"/>
<path opacity="0.1" d="M258.482 130.385C258.482 130.385 255.026 144.083 258.482 162.712L259.921 170.108C259.921 170.108 259.921 175.861 261.361 178.053C261.361 178.053 265.104 210.654 267.12 210.654C269.135 210.654 275.47 209.558 276.045 208.736C276.621 207.914 264.816 129.015 264.816 129.015L258.482 130.385Z" fill="black"/>
<path d="M267.938 208.466L263.477 224.192C263.477 224.192 254.557 229.185 260.066 230.184C265.576 231.182 271.086 229.185 271.086 229.185L273.71 221.946L276.333 220.448V228.187H277.121L278.957 217.952C278.957 217.952 278.695 212.709 277.121 212.21C275.546 211.711 274.759 208.965 274.759 208.965L267.938 208.466Z" fill="#2F2E41"/>
<path opacity="0.1" d="M267.938 208.466L263.477 224.192C263.477 224.192 254.557 229.185 260.066 230.184C265.576 231.182 271.086 229.185 271.086 229.185L273.71 221.946L276.333 220.448V228.187H277.121L278.957 217.952C278.957 217.952 278.695 212.709 277.121 212.21C275.546 211.711 274.759 208.965 274.759 208.965L267.938 208.466Z" fill="black"/>
<path d="M257.33 129.837C257.33 129.837 259.633 138.056 260.497 139.426C260.497 139.426 261.649 162.712 265.392 170.656L269.423 180.793C269.423 180.793 276.046 210.654 274.318 213.941C274.318 213.941 283.244 215.859 283.82 213.941C283.82 213.941 283.532 198.052 284.396 195.86C285.259 193.668 286.699 181.615 279.789 172.848V146.274C279.789 146.274 290.73 137.508 284.396 126.276C278.061 115.044 257.33 129.837 257.33 129.837Z" fill="#2F2E41"/>
<path d="M275.182 212.297L270.287 229.556C270.287 229.556 260.497 235.035 266.544 236.131C272.59 237.227 278.637 235.035 278.637 235.035L281.516 227.091L284.396 225.447V233.94H285.259L287.275 222.708C287.275 222.708 286.987 216.955 285.259 216.407C283.532 215.859 282.668 212.845 282.668 212.845L275.182 212.297Z" fill="#2F2E41"/>
<path d="M268.898 80.6712C268.898 80.6712 261.649 84.6348 261.649 84.9088C261.649 85.1828 262.513 89.566 262.513 89.566C262.513 89.566 253.587 98.0586 259.633 105.455C259.633 105.455 261.649 106.825 261.649 111.208V115.592C261.649 115.592 244.661 125.728 248.98 129.015C253.299 132.303 257.906 131.755 259.345 133.673C260.785 135.59 269.135 132.029 270.863 131.481C272.59 130.933 272.878 130.385 274.318 132.303C275.758 134.22 283.82 130.933 283.82 130.933C283.82 130.933 289.003 129.563 290.154 129.563C290.865 129.555 291.561 129.366 292.17 129.015L279.789 116.961L285.979 102.031C285.979 102.031 267.695 91.2097 267.695 88.1963C267.695 85.1828 268.898 80.6712 268.898 80.6712Z" fill="#3F3D56"/>
<path d="M280.077 81.3474C280.077 81.3474 276.333 86.2786 279.213 93.1274C282.092 99.9762 286.699 107.921 286.699 107.921L279.501 110.113H272.878C272.878 110.113 259.057 107.921 260.497 112.852C261.937 117.783 271.727 115.592 271.727 115.592H277.485C277.485 115.592 290.442 116.961 292.17 114.77C292.17 114.77 296.777 114.496 294.761 105.729C292.746 96.9628 286.861 81.9565 286.861 81.9565L280.077 81.3474Z" fill="#FFB8B8"/>
<path d="M270.231 61.4623C275.78 61.4623 280.278 59.2848 280.278 56.5986C280.278 53.9125 275.78 51.7349 270.231 51.7349C264.682 51.7349 260.183 53.9125 260.183 56.5986C260.183 59.2848 264.682 61.4623 270.231 61.4623Z" fill="#2F2E41"/>
<path d="M282.812 68.3346C283.607 68.3346 284.252 66.9854 284.252 65.3211C284.252 63.6568 283.607 62.3076 282.812 62.3076C282.017 62.3076 281.372 63.6568 281.372 65.3211C281.372 66.9854 282.017 68.3346 282.812 68.3346Z" fill="#FFB8B8"/>
<path d="M281.66 55.7328C286.431 55.7328 290.298 52.0532 290.298 47.5141C290.298 42.9751 286.431 39.2955 281.66 39.2955C276.89 39.2955 273.022 42.9751 273.022 47.5141C273.022 52.0532 276.89 55.7328 281.66 55.7328Z" fill="#2F2E41"/>
<path opacity="0.3" d="M97.6183 84.8951C117.191 84.8951 133.057 69.7989 133.057 51.1767C133.057 32.5545 117.191 17.4582 97.6183 17.4582C78.0459 17.4582 62.1793 32.5545 62.1793 51.1767C62.1793 69.7989 78.0459 84.8951 97.6183 84.8951Z" fill="#49AF99"/>
<path opacity="0.3" d="M28.9956 164.9C40.5611 164.9 49.9368 155.979 49.9368 144.975C49.9368 133.971 40.5611 125.051 28.9956 125.051C17.43 125.051 8.05432 133.971 8.05432 144.975C8.05432 155.979 17.43 164.9 28.9956 164.9Z" fill="#49AF99"/>
<path opacity="0.3" d="M163.342 185.744C187.006 185.744 206.191 167.491 206.191 144.975C206.191 122.459 187.006 104.207 163.342 104.207C139.677 104.207 120.493 122.459 120.493 144.975C120.493 167.491 139.677 185.744 163.342 185.744Z" fill="#49AF99"/>
<path d="M21.3053 79.0963L20.6751 78.9685C20.81 78.3662 20.9507 77.7659 21.0971 77.1676L21.7248 77.3067C21.5793 77.9013 21.4394 78.4979 21.3053 79.0963Z" fill="#49AF99"/>
<path d="M224.196 74.0314C223.865 72.8633 223.507 71.6837 223.13 70.5256L223.746 70.3445C224.125 71.5098 224.486 72.6967 224.818 73.8721L224.196 74.0314ZM22.6647 73.7635L22.043 73.6024C22.3803 72.4236 22.7459 71.2334 23.1297 70.0649L23.7448 70.2478C23.3632 71.4091 23 72.5918 22.6647 73.7634V73.7635ZM221.931 67.0656C221.51 65.9209 221.061 64.7712 220.598 63.6488L221.198 63.4249C221.664 64.5542 222.115 65.711 222.539 66.8629L221.931 67.0656ZM24.9611 66.7737L24.3536 66.5692C24.7827 65.4159 25.2401 64.2554 25.7129 63.12L26.312 63.3457C25.8419 64.4743 25.3875 65.6276 24.9611 66.7737ZM219.132 60.2804C218.625 59.1724 218.088 58.0569 217.537 56.9648L218.118 56.6993C218.673 57.7982 219.213 58.9206 219.723 60.0355L219.132 60.2804ZM27.7951 59.9686L27.2052 59.7217C27.7224 58.603 28.2684 57.4785 28.8285 56.3795L29.4083 56.6468C28.8518 57.7391 28.309 58.8567 27.7951 59.9686ZM215.813 53.7065C215.219 52.6334 214.597 51.558 213.965 50.5102L214.523 50.2048C215.16 51.2591 215.786 52.3411 216.383 53.4209L215.813 53.7065ZM31.1496 53.385L30.5804 53.0973C31.1834 52.0177 31.8152 50.9349 32.4583 49.8794L33.0158 50.1869C32.3766 51.2359 31.7486 52.3119 31.1496 53.385ZM211.993 47.3801C211.32 46.3531 210.616 45.3237 209.902 44.3201L210.436 43.9765C211.154 44.9863 211.862 46.0222 212.54 47.0553L211.993 47.3801ZM35.0039 47.0569L34.4586 46.7303C35.1421 45.6977 35.8555 44.6626 36.5792 43.6538L37.1115 43.9992C36.3923 45.002 35.6831 46.0307 35.0039 47.0569H35.0039ZM207.693 41.3349C206.945 40.3614 206.164 39.3833 205.371 38.4279L205.877 38.0481C206.675 39.0094 207.461 39.9935 208.214 40.973L207.693 41.3349ZM39.3356 41.0179L38.8171 40.6539C39.5796 39.6704 40.3707 38.6882 41.1686 37.7346L41.6726 38.1163C40.8798 39.0642 40.0935 40.0404 39.3356 41.0179H39.3356ZM202.938 35.6033C202.113 34.6803 201.259 33.7589 200.398 32.8647L200.873 32.4507C201.739 33.3503 202.599 34.2773 203.429 35.2061L202.938 35.6033ZM44.1196 35.2986L43.6303 34.8995C44.4644 33.9741 45.3287 33.0499 46.1992 32.1526L46.6727 32.5684C45.8075 33.4603 44.9484 34.3788 44.1196 35.2986ZM197.754 30.2159C196.858 29.351 195.935 28.4913 195.009 27.6606L195.451 27.2145C196.382 28.0505 197.311 28.9154 198.212 29.7858L197.754 30.2159ZM49.3288 29.9293L48.8716 29.4974C49.7765 28.6305 50.7092 27.7691 51.6438 26.9372L52.0839 27.3849C51.155 28.2117 50.2281 29.0678 49.3288 29.9293ZM192.167 25.202C191.208 24.4023 190.221 23.6088 189.233 22.8435L189.639 22.3681C190.634 23.138 191.627 23.9364 192.592 24.741L192.167 25.202ZM54.9347 24.938L54.5118 24.4754C55.4801 23.6745 56.476 22.8804 57.4724 22.1153L57.877 22.5925C56.8869 23.3528 55.897 24.142 54.9347 24.938ZM186.209 20.5885C185.193 19.859 184.147 19.1362 183.1 18.4402L183.469 17.9376C184.523 18.638 185.575 19.3652 186.597 20.0991L186.209 20.5885ZM60.9072 20.3513L60.5211 19.8603C61.5487 19.1287 62.6028 18.4064 63.6541 17.7134L64.021 18.2175C62.9761 18.906 61.9284 19.624 60.9072 20.3513ZM179.91 16.4017C178.838 15.7438 177.738 15.0958 176.642 14.4758L176.971 13.9487C178.074 14.5727 179.181 15.2246 180.259 15.8865L179.91 16.4017ZM67.2142 16.1942L66.8669 15.6779C67.9465 15.0207 69.053 14.3741 70.1556 13.7559L70.4828 14.2843C69.3869 14.8985 68.2871 15.5412 67.2142 16.1942V16.1942ZM173.301 12.6655C172.184 12.0854 171.037 11.516 169.892 10.9733L170.18 10.4246C171.331 10.9708 172.485 11.5436 173.61 12.1273L173.301 12.6655ZM73.8222 12.4901L73.5158 11.9507C74.6421 11.3715 75.7952 10.8042 76.9427 10.2649L77.228 10.8145C76.0875 11.3505 74.9417 11.9143 73.8222 12.4901ZM166.419 9.4016C165.259 8.90139 164.07 8.41435 162.886 7.95366L163.13 7.3861C164.321 7.84964 165.518 8.33997 166.685 8.84332L166.419 9.4016ZM80.6958 9.26016L80.432 8.70098C81.598 8.20317 82.7912 7.71852 83.9784 7.26082L84.2203 7.82898C83.0403 8.28399 81.8545 8.76549 80.6958 9.26016ZM159.299 6.63085C158.098 6.21251 156.874 5.81034 155.661 5.4354L155.86 4.85227C157.081 5.22961 158.312 5.63432 159.52 6.0552L159.299 6.63085ZM87.7971 6.52278L87.5775 5.94654C88.7806 5.53119 90.0075 5.13217 91.2238 4.76023L91.4209 5.34395C90.2121 5.7135 88.993 6.11013 87.7971 6.52278ZM151.978 4.36913C150.751 4.03746 149.502 3.72358 148.266 3.43591L148.419 2.84051C149.663 3.12983 150.92 3.44579 152.154 3.77942L151.978 4.36913ZM95.0979 4.29085L94.9236 3.70053C96.1566 3.37111 97.4143 3.05873 98.6619 2.77211L98.8131 3.36811C97.5732 3.65294 96.3232 3.96337 95.0979 4.29085ZM144.519 2.63426C143.272 2.39029 142.002 2.16519 140.745 1.96507L140.851 1.36039C142.116 1.5617 143.394 1.78831 144.649 2.03377L144.519 2.63426ZM102.562 2.57664L102.434 1.97583C103.692 1.73351 104.97 1.5105 106.234 1.31293L106.338 1.91791C105.082 2.11415 103.812 2.33582 102.562 2.57664V2.57664ZM136.947 1.42849C135.681 1.27238 134.397 1.13692 133.13 1.02542L133.19 0.41505C134.464 0.527158 135.756 0.663509 137.029 0.820517L136.947 1.42849ZM110.138 1.39212L110.057 0.783847C111.327 0.630732 112.619 0.49782 113.898 0.38871L113.955 0.999376C112.684 1.10774 111.4 1.2399 110.138 1.39212V1.39212ZM129.301 0.755407C128.031 0.687906 126.74 0.641807 125.464 0.618308L125.477 0.00524559C126.761 0.0290447 128.059 0.0754405 129.337 0.143242L129.301 0.755407ZM117.786 0.739685L117.752 0.127517C119.031 0.0630107 120.33 0.0202035 121.613 0L121.624 0.613063C120.349 0.632978 119.057 0.675636 117.786 0.739685Z" fill="#49AF99"/>
<path d="M225.555 79.4361C225.422 78.8371 225.285 78.2402 225.142 77.6452L225.77 77.5081C225.914 78.1068 226.053 78.7076 226.185 79.3104L225.555 79.4361Z" fill="#49AF99"/>
<path d="M226.424 119.408L225.791 119.289C225.915 118.691 226.034 118.09 226.147 117.487L226.782 117.595C226.668 118.201 226.549 118.806 226.424 119.408Z" fill="#49AF99"/>
<path d="M123.392 199.844C122.692 199.844 121.993 199.838 121.296 199.825L121.309 199.212C122.583 199.236 123.865 199.237 125.14 199.218L125.151 199.831C124.566 199.84 123.98 199.844 123.392 199.844ZM129.003 199.705L128.969 199.092C130.244 199.028 131.529 198.942 132.79 198.834L132.847 199.445C131.579 199.553 130.285 199.64 129.003 199.705ZM117.445 199.687C116.166 199.619 114.873 199.528 113.602 199.416L113.661 198.806C114.925 198.917 116.21 199.007 117.481 199.075L117.445 199.687ZM136.679 199.053L136.598 198.444C137.867 198.292 139.142 198.116 140.389 197.921L140.493 198.526C139.239 198.722 137.955 198.899 136.679 199.053V199.053ZM109.771 199.012C108.498 198.855 107.215 198.674 105.958 198.474L106.065 197.869C107.314 198.068 108.589 198.248 109.854 198.404L109.771 199.012ZM144.285 197.868L144.158 197.266C145.408 197.026 146.666 196.761 147.898 196.479L148.048 197.076C146.809 197.359 145.543 197.626 144.285 197.868ZM102.169 197.803C100.912 197.558 99.647 197.287 98.4087 197L98.5616 196.404C99.7922 196.69 101.05 196.959 102.299 197.203L102.169 197.803ZM151.779 196.152L151.605 195.562C152.827 195.236 154.061 194.884 155.274 194.514L155.47 195.098C154.251 195.47 153.008 195.824 151.779 196.152V196.152ZM94.6815 196.065C93.4499 195.733 92.2057 195.373 90.9836 194.996L91.1821 194.413C92.3969 194.788 93.6333 195.145 94.8574 195.475L94.6815 196.065ZM159.109 193.918L158.89 193.341C160.08 192.932 161.281 192.495 162.459 192.042L162.7 192.61C161.515 193.066 160.307 193.506 159.109 193.918L159.109 193.918ZM87.331 193.798C86.1266 193.38 84.9145 192.934 83.7283 192.473L83.9718 191.905C85.1507 192.363 86.3553 192.806 87.5522 193.223L87.331 193.798ZM166.239 191.178L165.976 190.618C167.136 190.125 168.3 189.604 169.437 189.071L169.721 189.622C168.578 190.158 167.406 190.681 166.239 191.178L166.239 191.178ZM80.1806 191.022C79.013 190.519 77.8395 189.99 76.6925 189.447L76.9795 188.898C78.1192 189.438 79.2856 189.964 80.4461 190.463L80.1806 191.022ZM173.143 187.944L172.837 187.404C173.957 186.83 175.079 186.23 176.171 185.619L176.497 186.148C175.398 186.762 174.269 187.366 173.143 187.944H173.143ZM73.2685 187.752C72.1428 187.169 71.0139 186.559 69.9131 185.938L70.2417 185.41C71.3358 186.028 72.4577 186.634 73.5765 187.213L73.2685 187.752ZM179.781 184.235L179.435 183.719C180.502 183.071 181.574 182.394 182.623 181.705L182.989 182.21C181.934 182.903 180.854 183.584 179.781 184.235H179.781ZM66.6309 184.008C65.5549 183.349 64.4765 182.662 63.4257 181.966L63.7939 181.463C64.8385 182.155 65.9102 182.838 66.9795 183.493L66.6309 184.008ZM186.118 180.073L185.733 179.581C186.75 178.86 187.768 178.11 188.76 177.351L189.164 177.829C188.166 178.592 187.141 179.347 186.118 180.073L186.118 180.073ZM60.302 179.814C59.2815 179.083 58.2591 178.323 57.2635 177.554L57.6694 177.078C58.659 177.842 59.6751 178.598 60.6893 179.324L60.302 179.814ZM192.121 175.479L191.7 175.016C192.66 174.224 193.618 173.405 194.548 172.58L194.987 173.029C194.052 173.859 193.088 174.683 192.121 175.479L192.121 175.479ZM54.3141 175.191C53.3494 174.389 52.3884 173.56 51.4579 172.727L51.8993 172.281C52.8242 173.108 53.7792 173.932 54.7382 174.729L54.3141 175.191ZM197.759 170.48L197.303 170.047C198.203 169.188 199.096 168.304 199.958 167.42L200.43 167.837C199.564 168.727 198.665 169.616 197.759 170.48ZM48.6986 170.167C47.8008 169.303 46.9062 168.41 46.0394 167.513L46.5138 167.098C47.3753 167.99 48.2644 168.877 49.1568 169.736L48.6986 170.167ZM202.999 165.102L202.511 164.702C203.342 163.784 204.166 162.84 204.959 161.896L205.462 162.279C204.664 163.228 203.836 164.178 202.999 165.102ZM43.4844 164.768C42.6549 163.844 41.8313 162.891 41.0366 161.938L41.5416 161.557C42.3314 162.505 43.1499 163.451 43.9745 164.37L43.4844 164.768ZM207.816 159.372L207.298 159.007C208.058 158.031 208.808 157.032 209.524 156.038L210.055 156.385C209.335 157.385 208.581 158.39 207.816 159.372ZM38.6996 159.024C37.9425 158.044 37.1944 157.037 36.4762 156.033L37.0091 155.688C37.7228 156.687 38.4663 157.687 39.2187 158.661L38.6996 159.024ZM212.179 153.32L211.635 152.992C212.315 151.972 212.985 150.923 213.627 149.875L214.184 150.184C213.538 151.238 212.863 152.293 212.179 153.32ZM34.3699 152.966C33.691 151.937 33.0226 150.881 32.3836 149.829L32.9414 149.522C33.5766 150.568 34.2409 151.617 34.9158 152.64L34.3699 152.966ZM216.067 146.979L215.498 146.689C216.101 145.617 216.688 144.524 217.245 143.44L217.824 143.709C217.264 144.8 216.673 145.9 216.067 146.979ZM30.5198 146.624C29.9218 145.55 29.3369 144.451 28.7815 143.358L29.3616 143.091C29.9136 144.178 30.4949 145.27 31.0892 146.338L30.5198 146.624ZM219.453 140.379L218.864 140.131C219.38 139.025 219.881 137.892 220.355 136.766L220.953 136.993C220.477 138.127 219.972 139.266 219.453 140.379V140.379ZM27.1709 140.034C26.6573 138.921 26.1592 137.784 25.6905 136.657L26.2896 136.431C26.7554 137.552 27.2505 138.681 27.7608 139.788L27.1709 140.034ZM222.32 133.556L221.714 133.35C222.143 132.206 222.555 131.041 222.939 129.887L223.553 130.072C223.168 131.233 222.753 132.405 222.32 133.556ZM24.3426 133.231C23.9163 132.084 23.5067 130.913 23.1253 129.751L23.7404 129.568C24.1194 130.723 24.5264 131.886 24.9501 133.027L24.3426 133.231ZM224.649 126.546L224.028 126.383C224.366 125.22 224.685 124.033 224.979 122.852L225.606 122.993C225.31 124.181 224.989 125.376 224.649 126.546ZM22.0441 126.231C21.7088 125.059 21.3916 123.864 21.1015 122.68L21.7292 122.541C22.0174 123.718 22.3325 124.905 22.6658 126.07L22.0441 126.231Z" fill="#49AF99"/>
<path d="M20.2829 119.028C20.1602 118.425 20.0431 117.82 19.9318 117.214L20.5667 117.108C20.6771 117.711 20.7934 118.312 20.9156 118.911L20.2829 119.028Z" fill="#49AF99"/>
<path d="M175.992 119.688L175.393 119.463C175.626 118.9 175.853 118.325 176.068 117.751L176.675 117.957C176.458 118.537 176.228 119.119 175.992 119.688Z" fill="#49AF99"/>
<path d="M123.392 153.711C122.62 153.711 121.842 153.696 121.077 153.667L121.103 153.055C122.371 153.103 123.667 153.112 124.94 153.078L124.957 153.691C124.437 153.705 123.915 153.712 123.392 153.711ZM128.83 153.466L128.769 152.856C130.038 152.741 131.317 152.582 132.573 152.385L132.678 152.989C131.408 153.189 130.113 153.35 128.83 153.466ZM117.208 153.393C115.926 153.261 114.634 153.084 113.367 152.868L113.481 152.265C114.733 152.478 116.011 152.653 117.278 152.784L117.208 153.393ZM136.482 152.262L136.333 151.666C137.574 151.386 138.819 151.062 140.033 150.702L140.224 151.287C138.996 151.651 137.737 151.979 136.482 152.262V152.262ZM109.573 152.093C108.322 151.794 107.067 151.45 105.843 151.07L106.043 150.487C107.253 150.862 108.493 151.203 109.73 151.498L109.573 152.093ZM143.887 150.068L143.653 149.497C144.839 149.058 146.025 148.573 147.178 148.057L147.453 148.611C146.286 149.134 145.087 149.624 143.887 150.068V150.068ZM102.197 149.804C101.002 149.344 99.8087 148.838 98.6514 148.301L98.9339 147.75C100.078 148.281 101.257 148.781 102.439 149.236L102.197 149.804ZM150.904 146.924L150.59 146.389C151.704 145.798 152.808 145.163 153.874 144.502L154.226 145.015C153.148 145.684 152.03 146.326 150.904 146.924ZM95.223 146.57C94.1062 145.958 92.9977 145.302 91.9281 144.619L92.2871 144.11C93.3445 144.785 94.4404 145.434 95.5445 146.039L95.223 146.57ZM157.403 142.895L157.015 142.405C158.033 141.674 159.037 140.901 159.997 140.109L160.42 140.572C159.448 141.374 158.433 142.155 157.403 142.895ZM88.7812 142.458C87.7611 141.706 86.757 140.911 85.7971 140.097L86.2259 139.639C87.1748 140.444 88.1674 141.229 89.1761 141.973L88.7812 142.458ZM163.263 138.059L162.808 137.625C163.712 136.77 164.595 135.874 165.435 134.964L165.919 135.368C165.07 136.289 164.177 137.194 163.263 138.059V138.059ZM82.9892 137.549C82.0881 136.673 81.207 135.757 80.3705 134.824L80.8606 134.426C81.6876 135.348 82.5588 136.254 83.4495 137.12L82.9892 137.549ZM168.377 132.51L167.865 132.138C168.637 131.175 169.384 130.174 170.086 129.162L170.624 129.499C169.914 130.523 169.158 131.536 168.377 132.51ZM77.9532 131.936C77.1849 130.951 76.4433 129.928 75.7491 128.897L76.2919 128.566C76.978 129.586 77.7111 130.596 78.4708 131.57L77.9532 131.936ZM172.648 126.349L172.087 126.048C172.714 124.993 173.31 123.904 173.859 122.81L174.44 123.074C173.885 124.181 173.282 125.282 172.648 126.349H172.648ZM73.7695 125.722C73.1499 124.645 72.5625 123.536 72.0237 122.425L72.6089 122.168C73.1414 123.267 73.7222 124.363 74.3346 125.427L73.7695 125.722Z" fill="#49AF99"/>
<path d="M70.5123 119C70.2843 118.429 70.0628 117.843 69.8539 117.26L70.464 117.062C70.6704 117.639 70.8893 118.218 71.1147 118.783L70.5123 119Z" fill="#49AF99"/>
<path d="M71.5079 80.0903L70.9101 79.8616C71.1514 79.2903 71.4058 78.7169 71.6661 78.1576L72.2554 78.4057C71.9981 78.9588 71.7465 79.5254 71.5079 80.0903Z" fill="#49AF99"/>
<path d="M73.9486 75.0846L73.3791 74.7982C73.9877 73.703 74.6451 72.6137 75.3331 71.5607L75.8802 71.8843C75.2003 72.9253 74.5504 74.002 73.9486 75.0846ZM172.327 74.1917C171.705 73.1209 171.033 72.0563 170.332 71.0271L170.873 70.6937C171.582 71.7346 172.261 72.8117 172.891 73.8947L172.327 74.1917ZM78.0404 68.8191L77.5179 68.4602C78.2804 67.4553 79.0896 66.4631 79.9231 65.5109L80.4183 65.9034C79.5943 66.8447 78.7942 67.8256 78.0404 68.8191ZM168.111 68.0016C167.338 67.0229 166.518 66.0565 165.675 65.1294L166.162 64.7283C167.015 65.666 167.844 66.6433 168.626 67.6334L168.111 68.0016ZM83.0018 63.1506L82.5362 62.7267C83.4366 61.8315 84.3816 60.9546 85.3448 60.1203L85.7786 60.5738C84.8263 61.3985 83.892 62.2654 83.0018 63.1506ZM163.038 62.4239C162.13 61.5549 161.178 60.7049 160.21 59.8976L160.635 59.4366C161.614 60.253 162.576 61.1128 163.495 61.9916L163.038 62.4239ZM88.7355 58.1851L88.3356 57.7044C89.3578 56.9349 90.4206 56.1901 91.4944 55.4907L91.8584 55.9966C90.7967 56.6881 89.746 57.4244 88.7355 58.1851ZM157.206 57.5629C156.182 56.8215 155.116 56.1042 154.04 55.4313L154.393 54.9188C155.482 55.5995 156.56 56.325 157.596 57.075L157.206 57.5629ZM95.1328 54.0193L94.8066 53.4906C95.9296 52.8634 97.0904 52.2656 98.2565 51.7139L98.5435 52.2629C97.3906 52.8081 96.2431 53.3992 95.1328 54.0193ZM150.726 53.5135C149.602 52.9127 148.442 52.3428 147.28 51.8192L147.556 51.2651C148.731 51.7947 149.904 52.3714 151.041 52.9789L150.726 53.5135ZM102.074 50.7363L101.828 50.1697C103.032 49.6967 104.269 49.2583 105.505 48.8666L105.708 49.4482C104.487 49.8355 103.264 50.2688 102.074 50.7363ZM143.719 50.3577C142.518 49.9115 141.287 49.5006 140.059 49.1362L140.251 48.551C141.493 48.9196 142.739 49.3353 143.953 49.7865L143.719 50.3577ZM109.428 48.405L109.268 47.8113C110.528 47.5028 111.817 47.2326 113.099 47.0084L113.215 47.6113C111.949 47.833 110.674 48.1 109.428 48.405ZM136.319 48.1611C135.066 47.8789 133.786 47.6353 132.516 47.4368L132.62 46.8318C133.906 47.0325 135.2 47.279 136.467 47.5645L136.319 48.1611ZM117.052 47.0704L116.98 46.4612C118.27 46.3226 119.586 46.2249 120.891 46.1706L120.919 46.783C119.628 46.8367 118.327 46.9334 117.052 47.0704ZM128.669 46.9659C127.39 46.8519 126.087 46.7787 124.798 46.7484L124.813 46.1357C126.118 46.1662 127.436 46.2402 128.729 46.3556L128.669 46.9659Z" fill="#49AF99"/>
<path d="M174.877 79.17C174.627 78.6099 174.365 78.0477 174.096 77.499L174.68 77.2404C174.952 77.7954 175.218 78.3641 175.47 78.9305L174.877 79.17Z" fill="#49AF99"/>
<path d="M183.194 99.8426C182.348 99.8395 181.527 100.116 180.871 100.625C180.215 101.133 179.764 101.843 179.597 102.632C179.429 103.421 179.555 104.242 179.952 104.953C180.349 105.664 180.993 106.222 181.775 106.531C182.556 106.841 183.426 106.883 184.236 106.65C185.046 106.418 185.747 105.925 186.217 105.256C186.688 104.587 186.901 103.783 186.818 102.981C186.735 102.18 186.363 101.431 185.765 100.861C185.429 100.538 185.028 100.281 184.587 100.106C184.146 99.9312 183.672 99.8417 183.194 99.8426Z" fill="#3F3D56"/>
<path d="M168.618 99.8426C167.772 99.8395 166.951 100.116 166.295 100.625C165.639 101.133 165.189 101.843 165.021 102.632C164.854 103.421 164.979 104.242 165.376 104.953C165.773 105.664 166.417 106.222 167.199 106.531C167.98 106.841 168.85 106.883 169.66 106.65C170.47 106.418 171.171 105.925 171.642 105.256C172.112 104.587 172.325 103.783 172.242 102.981C172.16 102.18 171.787 101.431 171.189 100.861C170.852 100.539 170.452 100.282 170.011 100.108C169.57 99.9327 169.096 99.8427 168.618 99.8426Z" fill="#3F3D56"/>
<path d="M175.906 80.6037C172.274 80.6037 168.724 81.6284 165.704 83.5483C162.684 85.4682 160.33 88.197 158.94 91.3896C157.55 94.5823 157.187 98.0954 157.895 101.485C158.604 104.874 160.353 107.987 162.921 110.431C165.489 112.874 168.761 114.538 172.324 115.213C175.886 115.887 179.578 115.541 182.934 114.218C186.289 112.896 189.157 110.656 191.175 107.783C193.193 104.91 194.27 101.532 194.27 98.076C194.27 93.442 192.335 88.9979 188.892 85.7212C185.448 82.4445 180.777 80.6037 175.906 80.6037ZM179.475 87.8897C179.708 87.8876 179.94 87.9298 180.156 88.0138C180.372 88.0979 180.569 88.222 180.734 88.3791C180.899 88.5362 181.029 88.723 181.118 88.9287C181.206 89.1343 181.25 89.3547 181.248 89.5768C181.25 89.9135 181.147 90.2432 180.952 90.524C180.757 90.8048 180.478 91.0241 180.152 91.1539C179.825 91.2837 179.466 91.3182 179.118 91.2531C178.771 91.1879 178.452 91.026 178.202 90.7879C177.952 90.5498 177.782 90.2464 177.713 89.916C177.645 89.5857 177.681 89.2435 177.817 88.9328C177.954 88.6222 178.184 88.3571 178.479 88.1714C178.775 87.9857 179.121 87.8876 179.475 87.8897ZM168.618 108.262C167.589 108.263 166.582 107.973 165.725 107.429C164.869 106.885 164.201 106.111 163.807 105.206C163.413 104.301 163.309 103.305 163.51 102.344C163.711 101.383 164.207 100.501 164.935 99.8077C165.663 99.115 166.591 98.6432 167.601 98.4522C168.611 98.2612 169.658 98.3595 170.609 98.7347C171.56 99.1098 172.373 99.745 172.945 100.56C173.517 101.375 173.821 102.333 173.821 103.312C173.816 104.624 173.267 105.88 172.292 106.808C171.317 107.735 169.997 108.258 168.618 108.262H168.618ZM176.798 98.3943V103.169C176.798 103.394 176.704 103.61 176.537 103.769C176.37 103.929 176.143 104.018 175.906 104.018C175.67 104.018 175.443 103.929 175.275 103.769C175.108 103.61 175.014 103.394 175.014 103.169V99.6729C175.014 98.9779 174.122 98.824 171.585 97.434C171.256 97.2483 170.553 96.9194 170.553 95.9963C170.559 95.5514 170.745 95.1257 171.072 94.8079L175.07 91.1419C175.26 90.9592 175.491 90.8209 175.747 90.7378C176.002 90.6547 176.274 90.6291 176.542 90.663C176.809 90.697 177.065 90.7895 177.288 90.9334C177.512 91.0772 177.697 91.2684 177.83 91.492L179.475 94.6805H182.152C182.388 94.681 182.614 94.7706 182.781 94.9297C182.948 95.0889 183.042 95.3046 183.042 95.5294C183.042 95.7543 182.948 95.9699 182.781 96.1291C182.614 96.2882 182.388 96.3778 182.152 96.3783H178.951C178.354 96.3783 177.875 95.158 176.832 93.646L174.105 96.3783C175.103 97.121 176.798 97.694 176.798 98.3943H176.798ZM183.194 108.257C182.165 108.257 181.159 107.967 180.304 107.423C179.448 106.879 178.782 106.106 178.388 105.201C177.994 104.297 177.891 103.302 178.092 102.341C178.292 101.381 178.788 100.499 179.516 99.807C180.243 99.1147 181.17 98.6433 182.179 98.4523C183.188 98.2613 184.235 98.3593 185.185 98.734C186.136 99.1086 186.948 99.743 187.52 100.557C188.092 101.371 188.397 102.328 188.397 103.307C188.392 104.619 187.843 105.875 186.868 106.803C185.893 107.73 184.573 108.253 183.194 108.257H183.194Z" fill="#3F3D56"/>
<path d="M228.098 80.6037C224.466 80.6037 220.916 81.6284 217.896 83.5483C214.876 85.4682 212.522 88.197 211.132 91.3896C209.742 94.5823 209.379 98.0954 210.087 101.485C210.796 104.874 212.545 107.987 215.113 110.431C217.681 112.874 220.953 114.538 224.516 115.213C228.078 115.887 231.77 115.541 235.126 114.218C238.481 112.896 241.349 110.656 243.367 107.783C245.385 104.91 246.462 101.532 246.462 98.076C246.462 93.442 244.527 88.9979 241.083 85.7212C237.64 82.4445 232.969 80.6037 228.098 80.6037ZM223.23 93.0942C223.792 93.1066 224.338 93.2765 224.799 93.5825C225.259 93.8885 225.615 94.3171 225.821 94.8146C226.027 95.312 226.074 95.8563 225.957 96.3792C225.839 96.902 225.562 97.3803 225.16 97.754C224.758 98.1276 224.249 98.3802 223.697 98.4799C223.145 98.5797 222.574 98.5222 222.056 98.3148C221.538 98.1073 221.096 97.759 220.785 97.3136C220.474 96.8681 220.309 96.3453 220.309 95.8106C220.313 95.4496 220.391 95.0929 220.541 94.7609C220.69 94.429 220.906 94.1282 221.177 93.8759C221.449 93.6236 221.77 93.4247 222.122 93.2906C222.474 93.1565 222.851 93.0897 223.23 93.0943V93.0942ZM238.804 104.867H236.858V102.15H219.338V104.867H217.392V91.2851H219.338V99.4341H227.122V93.0943H234.912C235.418 93.089 235.92 93.1785 236.389 93.3577C236.858 93.537 237.286 93.8024 237.647 94.1389C238.009 94.4754 238.297 94.8764 238.495 95.3188C238.694 95.7613 238.799 96.2367 238.804 96.7178V104.867Z" fill="#3F3D56"/>
<path d="M24.8321 93.4073H19.3675C19.3084 93.4074 19.2518 93.4298 19.21 93.4696C19.1682 93.5094 19.1447 93.5632 19.1445 93.6195V101.047C19.1447 101.103 19.1682 101.157 19.21 101.197C19.2518 101.237 19.3084 101.259 19.3675 101.259H24.8321C25.0685 101.259 25.295 101.169 25.4622 101.01C25.6293 100.851 25.7236 100.635 25.7242 100.41V94.2561C25.7236 94.0312 25.6293 93.8157 25.4622 93.6566C25.295 93.4976 25.0685 93.4079 24.8321 93.4073Z" fill="#3F3D56"/>
<path d="M23.6054 102.851C23.3505 102.871 23.1068 102.959 22.9032 103.107C22.6996 103.254 22.5446 103.453 22.4564 103.682C22.3682 103.91 22.3505 104.158 22.4055 104.395C22.4605 104.633 22.5858 104.851 22.7666 105.023C22.9475 105.195 23.1763 105.314 23.4261 105.366C23.6758 105.419 23.9361 105.402 24.1762 105.318C24.4162 105.234 24.626 105.087 24.7808 104.893C24.9355 104.699 25.0288 104.467 25.0496 104.225C25.0649 104.041 25.0381 103.856 24.9709 103.682C24.9037 103.509 24.7979 103.352 24.6606 103.221C24.5233 103.09 24.3578 102.99 24.1757 102.926C23.9935 102.862 23.7989 102.836 23.6054 102.851Z" fill="#3F3D56"/>
<path d="M12.9049 102.851C12.65 102.871 12.4064 102.959 12.2028 103.107C11.9992 103.254 11.8441 103.453 11.7559 103.682C11.6677 103.91 11.6501 104.158 11.705 104.395C11.76 104.633 11.8853 104.851 12.0662 105.023C12.247 105.195 12.4758 105.314 12.7256 105.366C12.9753 105.419 13.2356 105.402 13.4757 105.318C13.7157 105.234 13.9255 105.087 14.0803 104.893C14.2351 104.699 14.3283 104.467 14.3491 104.225C14.3644 104.041 14.3376 103.856 14.2704 103.682C14.2033 103.509 14.0974 103.352 13.9601 103.221C13.8228 103.09 13.6574 102.99 13.4752 102.926C13.293 102.862 13.0984 102.836 12.9049 102.851Z" fill="#3F3D56"/>
<path d="M17.3602 93.4073H11.9068C11.6675 93.4081 11.4382 93.4989 11.269 93.6599C11.0998 93.8209 11.0043 94.039 11.0034 94.2667V100.4C11.0043 100.627 11.0998 100.845 11.269 101.006C11.4382 101.167 11.6675 101.258 11.9068 101.259H17.3602C17.4193 101.259 17.4759 101.237 17.5177 101.197C17.5595 101.157 17.583 101.103 17.5832 101.047V93.6195C17.583 93.5632 17.5595 93.5094 17.5177 93.4696C17.4759 93.4298 17.4193 93.4074 17.3602 93.4073Z" fill="#3F3D56"/>
<path d="M18.3638 80.6037C14.7318 80.6037 11.1813 81.6284 8.16142 83.5483C5.1415 85.4682 2.78776 88.197 1.39784 91.3896C0.00792659 94.5823 -0.355739 98.0954 0.352834 101.485C1.06141 104.874 2.81039 107.987 5.37862 110.431C7.94685 112.874 11.219 114.538 14.7812 115.213C18.3435 115.887 22.0358 115.541 25.3914 114.218C28.7469 112.896 31.615 110.656 33.6328 107.783C35.6506 104.91 36.7277 101.532 36.7277 98.076C36.7277 93.442 34.7929 88.9979 31.349 85.7212C27.9051 82.4445 23.2342 80.6037 18.3638 80.6037ZM27.2855 105.185C27.2838 105.747 27.0482 106.286 26.6303 106.684C26.2124 107.082 25.6461 107.306 25.0551 107.307H11.6725C11.0815 107.306 10.5152 107.082 10.0973 106.684C9.6794 106.286 9.44385 105.747 9.44211 105.185V90.5424C9.4435 90.0925 9.63193 89.6615 9.96626 89.3434C10.3006 89.0253 10.7536 88.846 11.2265 88.8447H25.5012C25.974 88.846 26.4271 89.0253 26.7614 89.3434C27.0957 89.6615 27.2841 90.0925 27.2855 90.5424V105.185Z" fill="#3F3D56"/>
<path d="M24.8879 90.3302H11.8399C11.7328 90.3231 11.6254 90.3371 11.5243 90.3713C11.4232 90.4054 11.3305 90.459 11.2521 90.5286C11.1736 90.5983 11.1111 90.6826 11.0683 90.7762C11.0255 90.8698 11.0035 90.9708 11.0035 91.0729C11.0035 91.175 11.0255 91.276 11.0683 91.3696C11.1111 91.4633 11.1736 91.5475 11.2521 91.6172C11.3305 91.6869 11.4232 91.7404 11.5243 91.7746C11.6254 91.8087 11.7328 91.8227 11.8399 91.8157H24.8879C24.9949 91.8227 25.1023 91.8087 25.2035 91.7746C25.3046 91.7404 25.3973 91.6869 25.4757 91.6172C25.5541 91.5475 25.6167 91.4633 25.6595 91.3696C25.7022 91.276 25.7243 91.175 25.7243 91.0729C25.7243 90.9708 25.7022 90.8698 25.6595 90.7762C25.6167 90.6826 25.5541 90.5983 25.4757 90.5286C25.3973 90.459 25.3046 90.4054 25.2035 90.3713C25.1023 90.3371 24.9949 90.3231 24.8879 90.3302Z" fill="#3F3D56"/>
<path d="M73.3315 98.5535C72.9635 98.5535 72.6623 99.0734 72.6623 99.7206C72.6623 100.368 72.9635 100.888 73.3315 100.888C73.6995 100.888 74.0006 100.368 74.0006 99.7206C74.0006 99.0734 73.6995 98.5535 73.3315 98.5535Z" fill="#3F3D56"/>
<path d="M68.4246 98.5535C68.0565 98.5535 67.7554 99.0734 67.7554 99.7206C67.7554 100.368 68.0565 100.888 68.4246 100.888C68.7926 100.888 69.0937 100.368 69.0937 99.7206C69.0937 99.0734 68.7926 98.5535 68.4246 98.5535Z" fill="#3F3D56"/>
<path d="M70.878 80.6037C67.246 80.6037 63.6955 81.6284 60.6756 83.5483C57.6557 85.4682 55.3019 88.197 53.912 91.3896C52.5221 94.5823 52.1584 98.0954 52.867 101.485C53.5756 104.874 55.3246 107.987 57.8928 110.431C60.461 112.874 63.7331 114.538 67.2954 115.213C70.8576 115.887 74.55 115.541 77.9055 114.218C81.2611 112.896 84.1291 110.656 86.147 107.783C88.1648 104.91 89.2418 101.532 89.2418 98.076C89.2418 93.442 87.3071 88.9979 83.8632 85.7212C80.4193 82.4445 75.7484 80.6037 70.878 80.6037ZM62.2908 97.4818L63.3057 92.3462C63.5678 90.9509 64.248 89.8527 65.525 89.8527H67.4431L67.5547 89.4336C67.6524 89.0679 67.8754 88.7437 68.1884 88.5121C68.5015 88.2806 68.8867 88.1549 69.2832 88.155H72.4616C72.8573 88.1548 73.2419 88.2798 73.5548 88.5103C73.8677 88.7408 74.0912 89.0637 74.1902 89.4283L74.3017 89.8527H76.231C77.4801 89.8527 78.1436 90.9297 78.4559 92.3409V92.3462L79.4763 97.4871C79.4844 97.5255 79.4811 97.5653 79.4669 97.602C79.4527 97.6387 79.428 97.671 79.3956 97.6952C79.3633 97.7194 79.3245 97.7346 79.2836 97.739C79.2427 97.7435 79.2013 97.7371 79.164 97.7205L77.7477 97.0998C77.7143 97.0867 77.685 97.0656 77.6626 97.0387C77.6402 97.0118 77.6253 96.9799 77.6195 96.946L76.7161 92.4046C76.5489 91.821 76.3147 91.5557 75.8184 91.5557H65.9432C65.4525 91.5557 65.1848 91.8369 65.0454 92.4046L64.1421 96.9459C64.1352 96.9795 64.12 97.011 64.0977 97.0377C64.0754 97.0645 64.0466 97.0858 64.0139 97.0998L62.6031 97.7152C62.5658 97.7313 62.5246 97.7373 62.4839 97.7326C62.4433 97.7279 62.4047 97.7127 62.3725 97.6886C62.3403 97.6646 62.3157 97.6326 62.3013 97.5961C62.2869 97.5596 62.2833 97.5201 62.2908 97.4818ZM81.9576 100.787L78.9075 107.997C77.3741 107.997 75.7459 106.83 75.7459 106.83C74.7422 107.313 72.785 107.737 71.3241 107.817C71.1679 107.822 71.0174 107.827 70.878 107.827C70.7386 107.827 70.588 107.827 70.4319 107.817C68.971 107.737 67.0138 107.307 66.0101 106.83C66.0101 106.83 64.3819 107.997 62.8484 107.997L59.7983 100.787C59.7513 100.674 59.7267 100.553 59.7259 100.432C59.7259 100.248 59.7811 100.069 59.8848 99.915C59.9886 99.7608 60.1366 99.6382 60.3113 99.5615L70.6884 95.0254C70.7468 94.9992 70.8106 94.9856 70.8752 94.9856C70.9398 94.9856 71.0036 94.9992 71.062 95.0254L81.4446 99.5615C81.6194 99.6382 81.7674 99.7608 81.8711 99.915C81.9749 100.069 82.03 100.248 82.0301 100.432C82.0292 100.553 82.0047 100.674 81.9576 100.787Z" fill="#3F3D56"/>
<path d="M123.392 80.6037C119.76 80.6037 116.21 81.6284 113.19 83.5483C110.17 85.4682 107.816 88.197 106.426 91.3896C105.036 94.5823 104.673 98.0954 105.381 101.485C106.09 104.874 107.839 107.987 110.407 110.431C112.975 112.874 116.247 114.538 119.81 115.213C123.372 115.887 127.064 115.541 130.42 114.218C133.775 112.896 136.643 110.656 138.661 107.783C140.679 104.91 141.756 101.532 141.756 98.076C141.756 93.442 139.821 88.9979 136.377 85.7212C132.933 82.4445 128.263 80.6037 123.392 80.6037ZM131.852 99.779C131.662 99.779 131.032 99.7737 130.848 99.7631L127.229 99.6729C127.21 99.6724 127.192 99.6766 127.175 99.685C127.159 99.6933 127.145 99.7056 127.134 99.7206L121.703 107.445C121.623 107.566 121.512 107.665 121.38 107.734C121.248 107.802 121.101 107.838 120.951 107.838H119.629C119.317 107.838 119.211 107.541 119.322 107.265L122.116 99.6835C122.122 99.6678 122.125 99.6508 122.123 99.634C122.121 99.6172 122.115 99.6011 122.105 99.5871C122.095 99.573 122.082 99.5614 122.066 99.5533C122.051 99.5452 122.033 99.5407 122.016 99.5403L115.23 99.397C115.159 99.3955 115.089 99.4096 115.025 99.4381C114.961 99.4667 114.905 99.5089 114.861 99.5615L112.759 101.986C112.675 102.087 112.568 102.168 112.447 102.224C112.325 102.28 112.192 102.309 112.057 102.31H111.126C111.09 102.31 111.055 102.302 111.023 102.287C110.991 102.271 110.964 102.249 110.943 102.221C110.922 102.194 110.908 102.162 110.903 102.128C110.898 102.095 110.902 102.061 110.914 102.028L112.023 98.3837C112.107 98.1808 112.107 97.9553 112.023 97.7524L110.914 94.1076C110.902 94.0755 110.898 94.0413 110.903 94.0077C110.908 93.9741 110.922 93.9421 110.943 93.9146C110.964 93.887 110.991 93.8646 111.023 93.8492C111.055 93.8339 111.09 93.826 111.126 93.8264H112.062C112.198 93.8256 112.331 93.8544 112.453 93.9105C112.575 93.9666 112.682 94.0486 112.765 94.15L114.828 96.5374C114.871 96.5905 114.927 96.633 114.991 96.6615C115.055 96.6901 115.125 96.7039 115.196 96.7019L122.021 96.6064C122.039 96.6063 122.057 96.6021 122.072 96.594C122.088 96.5859 122.101 96.5743 122.111 96.5602C122.121 96.546 122.127 96.5298 122.129 96.5129C122.131 96.496 122.128 96.4789 122.122 96.4632L119.328 88.8871C119.216 88.6112 119.322 88.3141 119.635 88.3141H120.956C121.106 88.3144 121.254 88.3505 121.385 88.4191C121.517 88.4877 121.628 88.5866 121.709 88.7067L127.134 96.4366C127.144 96.4521 127.158 96.4647 127.175 96.4731C127.192 96.4816 127.21 96.4854 127.229 96.4844L130.848 96.3942C131.027 96.3836 131.662 96.3783 131.852 96.3783C134.328 96.3783 135.883 97.1423 135.883 98.0813C135.883 99.0203 134.322 99.779 131.852 99.779Z" fill="#3F3D56"/>
<path d="M21.1578 156.972C20.3932 156.972 19.6457 156.756 19.01 156.352C18.3742 155.947 17.8786 155.373 17.586 154.701C17.2934 154.029 17.2169 153.289 17.366 152.576C17.5152 151.862 17.8834 151.207 18.4241 150.692C18.9648 150.178 19.6536 149.827 20.4036 149.686C21.1535 149.544 21.9309 149.616 22.6373 149.895C23.3437 150.173 23.9475 150.645 24.3723 151.25C24.7972 151.855 25.0239 152.566 25.0239 153.293C25.0227 154.268 24.615 155.203 23.8903 155.893C23.1655 156.583 22.1828 156.97 21.1578 156.972ZM21.1578 150.228C20.5206 150.228 19.8977 150.408 19.3679 150.745C18.8381 151.081 18.4252 151.56 18.1813 152.12C17.9375 152.68 17.8737 153.297 17.998 153.891C18.1223 154.486 18.4291 155.032 18.8797 155.461C19.3303 155.889 19.9043 156.181 20.5293 156.3C21.1542 156.418 21.802 156.357 22.3907 156.125C22.9794 155.893 23.4826 155.5 23.8366 154.996C24.1906 154.492 24.3796 153.899 24.3796 153.293C24.3786 152.481 24.0389 151.701 23.4349 151.127C22.8309 150.552 22.012 150.229 21.1578 150.228Z" fill="#F0F0F0"/>
<path d="M102.668 74.5147C101.903 74.5147 101.155 74.2989 100.52 73.8947C99.8839 73.4906 99.3884 72.9161 99.0958 72.2439C98.8031 71.5718 98.7266 70.8322 98.8758 70.1187C99.0249 69.4051 99.3931 68.7497 99.9338 68.2353C100.475 67.7208 101.163 67.3705 101.913 67.2286C102.663 67.0866 103.441 67.1595 104.147 67.4379C104.853 67.7163 105.457 68.1878 105.882 68.7927C106.307 69.3976 106.534 70.1088 106.534 70.8363C106.532 71.8115 106.125 72.7465 105.4 73.4361C104.675 74.1256 103.693 74.5135 102.668 74.5147ZM102.668 67.771C102.03 67.771 101.407 67.9507 100.878 68.2876C100.348 68.6244 99.9349 69.1031 99.6911 69.6632C99.4472 70.2233 99.3834 70.8397 99.5077 71.4343C99.632 72.0289 99.9389 72.5751 100.389 73.0038C100.84 73.4325 101.414 73.7244 102.039 73.8427C102.664 73.961 103.312 73.9003 103.9 73.6683C104.489 73.4362 104.992 73.0434 105.346 72.5393C105.7 72.0352 105.889 71.4425 105.889 70.8363C105.888 70.0236 105.549 69.2444 104.945 68.6698C104.341 68.0951 103.522 67.7719 102.668 67.771Z" fill="#F0F0F0"/>
<path d="M174.664 175.477L170.326 171.052L174.977 166.924L179.315 171.349L174.664 175.477ZM171.017 171.075L174.688 174.819L178.623 171.327L174.953 167.582L171.017 171.075Z" fill="#F0F0F0"/>
</g>
<defs>
<clipPath id="clip0">
<rect width="329.099" height="240" fill="white"/>
</clipPath>
</defs>
</svg>
